<svg width="37" height="15" viewBox="0 0 37 15" fill="none" xmlns="http://www.w3.org/2000/svg">
<g id="amazon web services" clip-path="url(#clip0_2002_2413)">
<g id="amazon web services_2">
<path id="Path 29" fill-rule="evenodd" clip-rule="evenodd" d="M5.33235 13.8323L3.25137 13.0462V9.83548L5.33235 10.5819V13.8323ZM5.71408 13.8323L7.79506 13.0463V9.83548L5.71408 10.5819V13.8323ZM3.46526 9.59535L5.57135 8.9712L7.5243 9.63409L5.57135 10.332L3.46526 9.59535ZM2.85481 9.34668L0.773926 8.5609V5.34993L2.85491 6.0963V9.34673L2.85481 9.34668ZM3.23663 9.34673L5.31775 8.5609V5.34993L3.23654 6.09625V9.34668L3.23663 9.34673ZM0.987766 5.1096L3.09391 4.4856L5.04685 5.14849L3.09391 5.84644L0.987766 5.10975V5.1096ZM7.71071 9.34668L5.62959 8.56085V5.34993L7.71071 6.0963V9.34673V9.34668ZM8.09243 9.34673L10.1735 8.5609V5.34993L8.09243 6.0963V9.34673ZM5.8437 5.10965L7.9498 4.48565L9.90261 5.14854L7.9498 5.84649L5.8437 5.10979V5.10965ZM10.1882 4.86075L8.10713 4.0753V0.864332L10.1882 1.61065V4.86094L10.1882 4.86075ZM10.5699 4.86094L12.6509 4.07549V0.864332L10.5696 1.61065V4.86094H10.5699ZM8.32106 0.624051L10.4273 0L12.3801 0.662749L10.4273 1.36084L8.32106 0.624051ZM15.0441 4.8607L12.963 4.07525V0.864332L15.0442 1.61065V4.86094L15.0441 4.8607ZM15.4258 4.86094L17.5069 4.07549V0.864332L15.4258 1.61065V4.86094ZM13.1769 0.624051L15.2832 0L17.2359 0.662749L15.2832 1.3607L13.1769 0.624051Z" fill="#ED1C24"/>
<path id="Path 30" fill-rule="evenodd" clip-rule="evenodd" d="M13.985 11.7422L13.286 14.2986H12.9823L12.438 12.3998L11.939 14.2986H11.6294L10.9025 11.7422H11.2782L11.8074 13.6472L12.311 11.7422H12.5882L13.1359 13.6536L13.6798 11.7422H13.9849H13.985Z" fill="#ED1C24"/>
<path id="Path 31" fill-rule="evenodd" clip-rule="evenodd" d="M13.985 11.7422L13.286 14.2986H12.9823L12.438 12.3998L11.939 14.2986H11.6294L10.9025 11.7422H11.2782L11.8074 13.6472L12.311 11.7422H12.5882L13.1359 13.6536L13.6798 11.7422H13.9849H13.985Z" fill="#ED1C24" stroke="#ED1C24" stroke-width="0.121803"/>
<path id="Path 32" fill-rule="evenodd" clip-rule="evenodd" d="M15.9196 13.5328L16.2714 13.6088C16.2069 13.8282 16.0753 14.019 15.8972 14.1516C15.7068 14.2964 15.4767 14.3719 15.2418 14.3665C14.9106 14.3665 14.6426 14.2435 14.4378 13.9977C14.233 13.7518 14.1306 13.4296 14.1305 13.0311C14.1305 12.624 14.2369 12.2951 14.4498 12.0445C14.5488 11.9234 14.672 11.8269 14.8106 11.7619C14.9492 11.6968 15.0998 11.6648 15.2515 11.6682C15.5685 11.6682 15.8233 11.7837 16.0159 12.0146C16.2084 12.2456 16.3072 12.5911 16.3123 13.0513H14.5498C14.5498 13.4379 14.6266 13.6987 14.7801 13.8338C14.9139 13.9607 15.0868 14.0325 15.2669 14.0362C15.5757 14.0361 15.7933 13.8684 15.9196 13.5328ZM15.899 12.7549C15.8981 12.6244 15.8754 12.495 15.8318 12.3728C15.7883 12.259 15.7151 12.1603 15.6207 12.0882C15.5172 12.0084 15.3914 11.9671 15.2632 11.9707C15.1741 11.9692 15.0857 11.9873 15.0037 12.0239C14.9217 12.0605 14.8479 12.1148 14.787 12.1833C14.6566 12.3251 14.5835 12.5156 14.5676 12.7548H15.899L15.899 12.7549Z" fill="#ED1C24"/>
<path id="Path 33" fill-rule="evenodd" clip-rule="evenodd" d="M15.9196 13.5328L16.2714 13.6088C16.2069 13.8282 16.0753 14.019 15.8972 14.1516C15.7068 14.2964 15.4767 14.3719 15.2418 14.3665C14.9106 14.3665 14.6426 14.2435 14.4378 13.9977C14.233 13.7518 14.1306 13.4296 14.1305 13.0311C14.1305 12.624 14.2369 12.2951 14.4498 12.0445C14.5488 11.9234 14.672 11.8269 14.8106 11.7619C14.9492 11.6968 15.0998 11.6648 15.2515 11.6682C15.5685 11.6682 15.8233 11.7837 16.0159 12.0146C16.2084 12.2456 16.3072 12.5911 16.3123 13.0513H14.5498C14.5498 13.4379 14.6266 13.6987 14.7801 13.8338C14.9139 13.9607 15.0868 14.0325 15.2669 14.0362C15.5757 14.0361 15.7933 13.8684 15.9196 13.5328ZM15.899 12.7549C15.8981 12.6244 15.8754 12.495 15.8318 12.3728C15.7883 12.259 15.7151 12.1603 15.6207 12.0882C15.5172 12.0084 15.3914 11.9671 15.2632 11.9707C15.1741 11.9692 15.0857 11.9873 15.0037 12.0239C14.9217 12.0605 14.8479 12.1148 14.787 12.1833C14.6566 12.3251 14.5835 12.5156 14.5676 12.7548L15.899 12.7549Z" fill="#ED1C24" stroke="#ED1C24" stroke-width="0.121803"/>
<path id="Path 34" fill-rule="evenodd" clip-rule="evenodd" d="M16.9908 14.2992H16.8088V10.8477H17.1872V12.169C17.3601 11.8375 17.5983 11.6718 17.9018 11.6719C18.0357 11.6702 18.1682 11.7006 18.2893 11.7607C18.4104 11.8209 18.5169 11.9092 18.6007 12.0191C18.7886 12.2505 18.8826 12.5866 18.8828 13.0274C18.8828 13.4073 18.7904 13.7261 18.6056 13.9838C18.5246 14.1053 18.4164 14.2041 18.2906 14.2715C18.1649 14.3389 18.0254 14.3728 17.8843 14.3703C17.5546 14.3703 17.3019 14.2056 17.126 13.8762L16.9908 14.2992ZM17.1873 13.2969C17.205 13.5594 17.2814 13.7499 17.4167 13.8684C17.5348 13.9798 17.6869 14.0429 17.8454 14.0462C17.9378 14.0474 18.0289 14.0239 18.1102 13.9778C18.1915 13.9317 18.2603 13.8646 18.3102 13.7828C18.4279 13.6071 18.4867 13.3665 18.4865 13.061C18.4865 12.7319 18.4297 12.4732 18.3161 12.2848C18.2686 12.1973 18.1996 12.1249 18.1164 12.0752C18.0331 12.0254 17.9387 12.0002 17.843 12.0022C17.7623 12.0033 17.6826 12.0217 17.6089 12.0563C17.5352 12.0909 17.469 12.1409 17.4143 12.2034C17.2841 12.344 17.2039 12.5276 17.1872 12.7232V13.2972L17.1873 13.2969Z" fill="#ED1C24"/>
<path id="Path 35" fill-rule="evenodd" clip-rule="evenodd" d="M16.9908 14.2992H16.8088V10.8477H17.1872V12.169C17.3601 11.8375 17.5983 11.6718 17.9018 11.6719C18.0357 11.6702 18.1682 11.7006 18.2893 11.7607C18.4104 11.8209 18.5169 11.9092 18.6007 12.0191C18.7886 12.2505 18.8826 12.5866 18.8828 13.0274C18.8828 13.4073 18.7904 13.7261 18.6056 13.9838C18.5246 14.1053 18.4164 14.2041 18.2906 14.2715C18.1649 14.3389 18.0254 14.3728 17.8843 14.3703C17.5546 14.3703 17.3019 14.2056 17.126 13.8762L16.9908 14.2992ZM17.1873 13.2969C17.205 13.5594 17.2814 13.7499 17.4167 13.8684C17.5348 13.9798 17.6869 14.0429 17.8454 14.0462C17.9378 14.0474 18.0289 14.0239 18.1102 13.9778C18.1915 13.9317 18.2603 13.8646 18.3102 13.7828C18.4279 13.6071 18.4867 13.3665 18.4865 13.061C18.4865 12.7319 18.4297 12.4732 18.3161 12.2848C18.2686 12.1973 18.1996 12.1249 18.1164 12.0752C18.0331 12.0254 17.9387 12.0002 17.843 12.0022C17.7623 12.0033 17.6826 12.0217 17.6089 12.0563C17.5352 12.0909 17.469 12.1409 17.4143 12.2034C17.2841 12.344 17.2039 12.5276 17.1872 12.7232V13.2972L17.1873 13.2969Z" fill="#ED1C24" stroke="#ED1C24" stroke-width="0.121803"/>
<path id="Path 36" fill-rule="evenodd" clip-rule="evenodd" d="M19.8472 13.6327L20.2078 13.5542C20.2881 13.8754 20.5415 14.0359 20.968 14.0359C21.1084 14.0406 21.2472 14.002 21.3671 13.9248C21.4184 13.8927 21.4607 13.8468 21.4895 13.7918C21.5183 13.7368 21.5326 13.6746 21.5309 13.6118C21.5309 13.4116 21.3921 13.2845 21.1146 13.2307L20.6029 13.1284C20.425 13.0992 20.2589 13.0166 20.1247 12.8904C20.0653 12.83 20.0187 12.757 19.9881 12.6763C19.9574 12.5956 19.9434 12.5089 19.9469 12.4221C19.9457 12.3189 19.967 12.2168 20.009 12.1236C20.0511 12.0304 20.1128 11.9486 20.1895 11.8843C20.3511 11.74 20.5689 11.6679 20.8428 11.668C21.3697 11.668 21.6947 11.8847 21.818 12.3181L21.472 12.3965C21.3727 12.1309 21.1687 11.9981 20.8599 11.9981C20.7274 11.9924 20.5961 12.0269 20.4817 12.0976C20.4357 12.1259 20.3977 12.1666 20.3718 12.2155C20.3458 12.2645 20.3328 12.3199 20.3341 12.3759C20.3341 12.5638 20.4598 12.6821 20.7114 12.7308L21.1842 12.8225C21.6792 12.9169 21.9267 13.1695 21.9265 13.5804C21.9286 13.6919 21.9044 13.8021 21.8562 13.9014C21.808 14.0006 21.7372 14.0858 21.6502 14.1493C21.4659 14.294 21.2207 14.3663 20.9145 14.3662C20.3392 14.3662 19.9834 14.1217 19.8472 13.6327H19.8472Z" fill="#ED1C24"/>
<path id="Path 37" fill-rule="evenodd" clip-rule="evenodd" d="M19.8472 13.6327L20.2078 13.5542C20.2881 13.8754 20.5415 14.0359 20.968 14.0359C21.1084 14.0406 21.2472 14.002 21.3671 13.9248C21.4184 13.8927 21.4607 13.8468 21.4895 13.7918C21.5183 13.7368 21.5326 13.6746 21.5309 13.6118C21.5309 13.4116 21.3921 13.2845 21.1146 13.2307L20.6029 13.1284C20.425 13.0992 20.2589 13.0166 20.1247 12.8904C20.0653 12.83 20.0187 12.757 19.9881 12.6763C19.9574 12.5956 19.9434 12.5089 19.9469 12.4221C19.9457 12.3189 19.967 12.2168 20.009 12.1236C20.0511 12.0304 20.1128 11.9486 20.1895 11.8843C20.3511 11.74 20.5689 11.6679 20.8428 11.668C21.3697 11.668 21.6947 11.8847 21.818 12.3181L21.472 12.3965C21.3727 12.1309 21.1687 11.9981 20.8599 11.9981C20.7274 11.9924 20.5961 12.0269 20.4817 12.0976C20.4357 12.1259 20.3977 12.1666 20.3718 12.2155C20.3458 12.2645 20.3328 12.3199 20.3341 12.3759C20.3341 12.5638 20.4598 12.6821 20.7114 12.7308L21.1842 12.8225C21.6792 12.9169 21.9267 13.1695 21.9265 13.5804C21.9286 13.6919 21.9044 13.8021 21.8562 13.9014C21.808 14.0006 21.7372 14.0858 21.6502 14.1493C21.4659 14.294 21.2207 14.3663 20.9145 14.3662C20.3392 14.3662 19.9834 14.1217 19.8472 13.6327H19.8472Z" fill="#ED1C24" stroke="#ED1C24" stroke-width="0.121803"/>
<path id="Path 38" fill-rule="evenodd" clip-rule="evenodd" d="M23.9388 13.5328L24.2907 13.6088C24.2263 13.8283 24.0946 14.0191 23.9164 14.1516C23.726 14.2964 23.496 14.3719 23.2612 14.3665C22.9299 14.3665 22.6618 14.2435 22.4571 13.9977C22.2523 13.7518 22.1499 13.4296 22.1499 13.0311C22.1499 12.624 22.2564 12.2951 22.4693 12.0445C22.5683 11.9234 22.6915 11.8269 22.8301 11.7619C22.9687 11.6968 23.1192 11.6648 23.2709 11.6682C23.5877 11.6682 23.8425 11.7837 24.0353 12.0146C24.2281 12.2456 24.3269 12.5911 24.3316 13.0513H22.5693C22.5693 13.4379 22.646 13.6987 22.7995 13.8338C22.9334 13.9606 23.1062 14.0325 23.2863 14.0362C23.595 14.0361 23.8125 13.8684 23.9388 13.5328ZM23.9182 12.7551C23.9174 12.6245 23.8947 12.4952 23.8512 12.373C23.8076 12.2591 23.7345 12.1605 23.6401 12.0884C23.5366 12.0086 23.4108 11.9672 23.2825 11.9708C23.1934 11.9693 23.105 11.9874 23.023 12.024C22.941 12.0606 22.8671 12.1149 22.8063 12.1834C22.676 12.3252 22.6029 12.5157 22.5869 12.7549H23.9182V12.7551Z" fill="#ED1C24"/>
<path id="Path 39" fill-rule="evenodd" clip-rule="evenodd" d="M23.9388 13.5328L24.2907 13.6088C24.2263 13.8283 24.0946 14.0191 23.9164 14.1516C23.726 14.2964 23.496 14.3719 23.2612 14.3665C22.9299 14.3665 22.6618 14.2435 22.4571 13.9977C22.2523 13.7518 22.1499 13.4296 22.1499 13.0311C22.1499 12.624 22.2564 12.2951 22.4693 12.0445C22.5683 11.9234 22.6915 11.8269 22.8301 11.7619C22.9687 11.6968 23.1192 11.6648 23.2709 11.6682C23.5877 11.6682 23.8425 11.7837 24.0353 12.0146C24.2281 12.2456 24.3269 12.5911 24.3316 13.0513H22.5693C22.5693 13.4379 22.646 13.6987 22.7995 13.8338C22.9334 13.9606 23.1062 14.0325 23.2863 14.0362C23.595 14.0361 23.8125 13.8684 23.9388 13.5328ZM23.9182 12.7551C23.9174 12.6245 23.8947 12.4952 23.8512 12.373C23.8076 12.2591 23.7345 12.1605 23.6401 12.0884C23.5366 12.0086 23.4108 11.9672 23.2825 11.9708C23.1934 11.9693 23.105 11.9874 23.023 12.024C22.941 12.0606 22.8671 12.1149 22.8063 12.1834C22.676 12.3252 22.6029 12.5157 22.5869 12.7549H23.9182V12.7551Z" fill="#ED1C24" stroke="#ED1C24" stroke-width="0.121803"/>
<path id="Path 40" fill-rule="evenodd" clip-rule="evenodd" d="M25.1164 14.2953H24.738V11.7389H25.0696V12.3348C25.1864 12.0556 25.3037 11.8747 25.4214 11.7922C25.5272 11.7133 25.6533 11.67 25.783 11.668C25.8213 11.668 25.871 11.671 25.9319 11.6772V12.0569H25.8552C25.7571 12.0548 25.6598 12.0755 25.5702 12.1177C25.4806 12.1599 25.4011 12.2224 25.3372 12.3009C25.1996 12.4634 25.126 12.6771 25.1164 12.9418V14.2953Z" fill="#ED1C24"/>
<path id="Path 41" fill-rule="evenodd" clip-rule="evenodd" d="M25.1164 14.2953H24.738V11.7389H25.0696V12.3348C25.1864 12.0556 25.3037 11.8747 25.4214 11.7922C25.5272 11.7133 25.6533 11.67 25.783 11.668C25.8213 11.668 25.871 11.671 25.9319 11.6772V12.0569H25.8552C25.7571 12.0548 25.6598 12.0755 25.5702 12.1177C25.4806 12.1599 25.4011 12.2224 25.3372 12.3009C25.1996 12.4634 25.126 12.6771 25.1164 12.9418V14.2953Z" fill="#ED1C24" stroke="#ED1C24" stroke-width="0.121803"/>
<path id="Path 42" fill-rule="evenodd" clip-rule="evenodd" d="M28.282 11.7422L27.4436 14.2986H27.0516L26.1851 11.7422H26.6036L27.2777 13.82L27.9465 11.7422H28.282Z" fill="#ED1C24"/>
<path id="Path 43" fill-rule="evenodd" clip-rule="evenodd" d="M28.282 11.7422L27.4436 14.2986H27.0516L26.1851 11.7422H26.6036L27.2777 13.82L27.9465 11.7422H28.282Z" fill="#ED1C24" stroke="#ED1C24" stroke-width="0.121803"/>
<path id="Path 44" fill-rule="evenodd" clip-rule="evenodd" d="M28.5842 10.8477H28.9892V11.2891H28.5842V10.8477ZM28.6019 11.7428H28.9802V14.2992H28.6019V11.7428Z" fill="#ED1C24"/>
<path id="Path 45" fill-rule="evenodd" clip-rule="evenodd" d="M28.5842 10.8477H28.9892V11.2891H28.5842V10.8477ZM28.6019 11.7428H28.9802V14.2992H28.6019V11.7428Z" fill="#ED1C24" stroke="#ED1C24" stroke-width="0.121803"/>
<path id="Path 46" fill-rule="evenodd" clip-rule="evenodd" d="M30.957 13.4L31.2971 13.4632C31.2491 13.7457 31.1425 13.9669 30.9776 14.1266C30.8091 14.2878 30.5877 14.3738 30.3602 14.3663C30.0256 14.3663 29.7705 14.2362 29.5951 13.976C29.4196 13.7159 29.3319 13.3983 29.3319 13.0234C29.3319 12.6349 29.4244 12.3119 29.6094 12.0543C29.7945 11.7968 30.0462 11.668 30.3647 11.668C30.6291 11.668 30.8409 11.7512 31.0001 11.9178C31.1636 12.0927 31.2679 12.3194 31.2969 12.5629L30.9567 12.6311C30.8927 12.2094 30.6991 11.9984 30.3758 11.9982C30.2793 11.9949 30.1838 12.0191 30.0993 12.0683C30.0149 12.1175 29.9446 12.1898 29.8959 12.2775C29.7838 12.4639 29.7278 12.7054 29.7279 13.0019C29.7279 13.3291 29.7834 13.5832 29.8945 13.7642C29.9426 13.8494 30.0115 13.9195 30.0941 13.9673C30.1766 14.0151 30.2697 14.0388 30.3638 14.036C30.6757 14.036 30.8734 13.824 30.9568 13.4001L30.957 13.4Z" fill="#ED1C24"/>
<path id="Path 47" fill-rule="evenodd" clip-rule="evenodd" d="M30.957 13.4L31.2971 13.4632C31.2491 13.7457 31.1425 13.9669 30.9776 14.1266C30.8091 14.2878 30.5877 14.3738 30.3602 14.3663C30.0256 14.3663 29.7705 14.2362 29.5951 13.976C29.4196 13.7159 29.3319 13.3983 29.3319 13.0234C29.3319 12.6349 29.4244 12.3119 29.6094 12.0543C29.7945 11.7968 30.0462 11.668 30.3647 11.668C30.6291 11.668 30.8409 11.7512 31.0001 11.9178C31.1636 12.0927 31.2679 12.3194 31.2969 12.5629L30.9567 12.6311C30.8927 12.2094 30.6991 11.9984 30.3758 11.9982C30.2793 11.9949 30.1838 12.0191 30.0993 12.0683C30.0149 12.1175 29.9446 12.1898 29.8959 12.2775C29.7838 12.4639 29.7278 12.7054 29.7279 13.0019C29.7279 13.3291 29.7834 13.5832 29.8945 13.7642C29.9426 13.8494 30.0115 13.9195 30.0941 13.9673C30.1766 14.0151 30.2697 14.0388 30.3638 14.036C30.6757 14.036 30.8734 13.824 30.9568 13.4001L30.957 13.4Z" fill="#ED1C24" stroke="#ED1C24" stroke-width="0.121803"/>
<path id="Path 48" fill-rule="evenodd" clip-rule="evenodd" d="M33.4303 13.5328L33.7822 13.6088C33.7177 13.8283 33.5861 14.0191 33.4078 14.1516C33.2175 14.2964 32.9874 14.3719 32.7526 14.3665C32.4213 14.3665 32.1533 14.2435 31.9485 13.9977C31.7437 13.7518 31.6414 13.4296 31.6414 13.0311C31.6414 12.624 31.7478 12.2951 31.9608 12.0445C32.0598 11.9234 32.183 11.8269 32.3216 11.7619C32.4602 11.6968 32.6108 11.6648 32.7625 11.6682C33.0791 11.6682 33.3339 11.7837 33.5269 12.0146C33.7198 12.2456 33.8187 12.5911 33.8233 13.0513H32.0606C32.0606 13.4379 32.1373 13.6987 32.2908 13.8338C32.4248 13.9607 32.5977 14.0326 32.7779 14.0362C33.0864 14.0361 33.3038 13.8684 33.4303 13.5328ZM33.4097 12.7549C33.4088 12.6244 33.386 12.495 33.3425 12.3728C33.299 12.259 33.2258 12.1603 33.1315 12.0882C33.0279 12.0084 32.9022 11.9671 32.7739 11.9707C32.6848 11.9691 32.5964 11.9872 32.5143 12.0238C32.4323 12.0605 32.3585 12.1148 32.2976 12.1833C32.1673 12.3251 32.0942 12.5156 32.0782 12.7548H33.4097V12.7549Z" fill="#ED1C24"/>
<path id="Path 49" fill-rule="evenodd" clip-rule="evenodd" d="M33.4303 13.5328L33.7822 13.6088C33.7177 13.8283 33.5861 14.0191 33.4078 14.1516C33.2175 14.2964 32.9874 14.3719 32.7526 14.3665C32.4213 14.3665 32.1533 14.2435 31.9485 13.9977C31.7437 13.7518 31.6414 13.4296 31.6414 13.0311C31.6414 12.624 31.7478 12.2951 31.9608 12.0445C32.0598 11.9234 32.183 11.8269 32.3216 11.7619C32.4602 11.6968 32.6108 11.6648 32.7625 11.6682C33.0791 11.6682 33.3339 11.7837 33.5269 12.0146C33.7198 12.2456 33.8187 12.5911 33.8233 13.0513H32.0606C32.0606 13.4379 32.1373 13.6987 32.2908 13.8338C32.4248 13.9607 32.5977 14.0326 32.7779 14.0362C33.0864 14.0361 33.3038 13.8684 33.4303 13.5328ZM33.4097 12.7549C33.4088 12.6244 33.386 12.495 33.3425 12.3728C33.299 12.259 33.2258 12.1603 33.1315 12.0882C33.0279 12.0084 32.9022 11.9671 32.7739 11.9707C32.6848 11.9691 32.5964 11.9872 32.5143 12.0238C32.4323 12.0605 32.3585 12.1148 32.2976 12.1833C32.1673 12.3251 32.0942 12.5156 32.0782 12.7548H33.4097V12.7549Z" fill="#ED1C24" stroke="#ED1C24" stroke-width="0.121803"/>
<path id="Path 50" fill-rule="evenodd" clip-rule="evenodd" d="M34.0372 13.6327L34.3983 13.5542C34.4782 13.8754 34.7315 14.0359 35.1581 14.0359C35.2986 14.0406 35.4374 14.002 35.5573 13.9248C35.6087 13.8927 35.6509 13.8468 35.6797 13.7918C35.7085 13.7368 35.7228 13.6746 35.7211 13.6118C35.7211 13.4116 35.5823 13.2845 35.3048 13.2307L34.793 13.1284C34.6152 13.0992 34.4491 13.0166 34.3148 12.8904C34.2554 12.83 34.2089 12.757 34.1782 12.6763C34.1476 12.5956 34.1336 12.5089 34.1371 12.4221C34.1359 12.3189 34.1571 12.2168 34.1992 12.1236C34.2412 12.0304 34.3029 11.9485 34.3796 11.8843C34.5413 11.74 34.7591 11.6679 35.033 11.668C35.5598 11.668 35.8849 11.8847 36.0082 12.3181L35.6621 12.3965C35.5629 12.1309 35.3588 11.9981 35.0499 11.9981C34.9174 11.9924 34.7861 12.0269 34.6718 12.0976C34.6257 12.1258 34.5877 12.1665 34.5617 12.2155C34.5357 12.2644 34.5227 12.3199 34.5241 12.3759C34.5241 12.5638 34.6499 12.6821 34.9017 12.7308L35.3744 12.8225C35.8693 12.9169 36.1168 13.1695 36.1168 13.5804C36.1189 13.6919 36.0947 13.8022 36.0465 13.9014C35.9983 14.0007 35.9274 14.0858 35.8404 14.1493C35.6561 14.294 35.4109 14.3663 35.1047 14.3662C34.5294 14.3662 34.1735 14.1217 34.0372 13.6327Z" fill="#ED1C24"/>
<path id="Path 51" fill-rule="evenodd" clip-rule="evenodd" d="M34.0372 13.6327L34.3983 13.5542C34.4782 13.8754 34.7315 14.0359 35.1581 14.0359C35.2986 14.0406 35.4374 14.002 35.5573 13.9248C35.6087 13.8927 35.6509 13.8468 35.6797 13.7918C35.7085 13.7368 35.7228 13.6746 35.7211 13.6118C35.7211 13.4116 35.5823 13.2845 35.3048 13.2307L34.793 13.1284C34.6152 13.0992 34.4491 13.0166 34.3148 12.8904C34.2554 12.83 34.2089 12.757 34.1782 12.6763C34.1476 12.5956 34.1336 12.5089 34.1371 12.4221C34.1359 12.3189 34.1571 12.2168 34.1992 12.1236C34.2412 12.0304 34.3029 11.9485 34.3796 11.8843C34.5413 11.74 34.7591 11.6679 35.033 11.668C35.5598 11.668 35.8849 11.8847 36.0082 12.3181L35.6621 12.3965C35.5629 12.1309 35.3588 11.9981 35.0499 11.9981C34.9174 11.9924 34.7861 12.0269 34.6718 12.0976C34.6257 12.1258 34.5877 12.1665 34.5617 12.2155C34.5357 12.2644 34.5227 12.3199 34.5241 12.3759C34.5241 12.5638 34.6499 12.6821 34.9017 12.7308L35.3744 12.8225C35.8693 12.9169 36.1168 13.1695 36.1168 13.5804C36.1189 13.6919 36.0947 13.8022 36.0465 13.9014C35.9983 14.0007 35.9274 14.0858 35.8404 14.1493C35.6561 14.294 35.4109 14.3663 35.1047 14.3662C34.5294 14.3662 34.1735 14.1217 34.0372 13.6327Z" fill="#ED1C24" stroke="#ED1C24" stroke-width="0.121803"/>
<path id="Path 52" fill-rule="evenodd" clip-rule="evenodd" d="M25.5094 6.27715V5.66345C25.5088 5.64286 25.5123 5.62238 25.5196 5.60325C25.5268 5.58412 25.5377 5.56674 25.5515 5.55218C25.5654 5.53762 25.5819 5.52617 25.6 5.51854C25.6182 5.51091 25.6377 5.50725 25.6572 5.50779L28.2717 5.50751C28.2914 5.50674 28.3111 5.51019 28.3295 5.51766C28.3479 5.52512 28.3646 5.53644 28.3787 5.55093C28.3928 5.56541 28.404 5.58277 28.4116 5.60194C28.4191 5.62111 28.4229 5.64169 28.4227 5.66244V6.18927C28.422 6.27754 28.3513 6.39286 28.2258 6.57577L26.8716 8.61124C27.3743 8.59883 27.9061 8.67805 28.3628 8.94831C28.4039 8.97192 28.4384 9.00651 28.4627 9.0486C28.487 9.09068 28.5004 9.13877 28.5014 9.18802V9.84315C28.5014 9.93348 28.4077 10.0378 28.309 9.98348C27.5043 9.53984 26.4363 9.49118 25.5466 9.98889C25.4556 10.04 25.3605 9.93702 25.3605 9.84665V9.22403C25.3605 9.12437 25.3622 8.95391 25.4577 8.8019L27.0268 6.43242H25.6606C25.6409 6.43319 25.6213 6.42974 25.6029 6.4223C25.5845 6.41485 25.5678 6.40356 25.5537 6.3891C25.5396 6.37465 25.5284 6.35733 25.5208 6.33819C25.5132 6.31906 25.5094 6.2985 25.5096 6.27778L25.5094 6.27715ZM16.1529 10.1123H15.3574C15.3215 10.1106 15.2874 10.0954 15.2613 10.0694C15.2352 10.0435 15.2189 10.0085 15.2152 9.97093L15.2157 5.67346C15.2162 5.6527 15.2205 5.63223 15.2284 5.61322C15.2363 5.59421 15.2478 5.57703 15.262 5.56267C15.2763 5.54831 15.2931 5.53704 15.3114 5.52951C15.3298 5.52199 15.3494 5.51835 15.3692 5.51881H16.1099C16.1466 5.51994 16.1817 5.53528 16.2084 5.56188C16.235 5.58849 16.2515 5.62451 16.2546 5.66306V6.22409H16.2696C16.4626 5.6815 16.8264 5.42819 17.3163 5.42819C17.8138 5.42819 18.1256 5.6815 18.3485 6.22409C18.5415 5.6815 18.9794 5.42819 19.4473 5.42819C19.7814 5.42819 20.1452 5.57293 20.3679 5.89841C20.6204 6.26005 20.5684 6.78444 20.5684 7.24584L20.5679 9.95762C20.5675 9.97839 20.5632 9.99887 20.5553 10.0179C20.5473 10.0369 20.5359 10.0541 20.5217 10.0685C20.5074 10.0829 20.4906 10.0942 20.4722 10.1017C20.4538 10.1092 20.4342 10.1129 20.4145 10.1124H19.62C19.582 10.1107 19.546 10.0937 19.5195 10.065C19.4929 10.0364 19.4778 9.99809 19.4771 9.95805V7.67976C19.4771 7.49896 19.4918 7.04685 19.4546 6.87515C19.3952 6.58573 19.2171 6.50431 18.9869 6.50431C18.8836 6.50761 18.7835 6.5428 18.699 6.60552C18.6145 6.66823 18.5494 6.7557 18.5117 6.85705C18.4299 7.0741 18.4374 7.43574 18.4374 7.68V9.95766C18.437 9.97842 18.4328 9.9989 18.4248 10.0179C18.4169 10.0369 18.4055 10.0541 18.3913 10.0685C18.377 10.0829 18.3603 10.0942 18.3419 10.1017C18.3235 10.1092 18.3039 10.1129 18.2842 10.1125H17.4896C17.4516 10.1107 17.4157 10.0937 17.3892 10.0651C17.3626 10.0364 17.3475 9.99812 17.3469 9.95809L17.346 7.67976C17.346 7.20082 17.4203 6.49516 16.8561 6.49516C16.2843 6.49516 16.3066 7.18248 16.3066 7.67976L16.3062 9.95757C16.3058 9.97833 16.3015 9.9988 16.2936 10.0178C16.2857 10.0368 16.2743 10.054 16.26 10.0684C16.2458 10.0828 16.229 10.0941 16.2106 10.1016C16.1922 10.1091 16.1726 10.1128 16.1529 10.1124V10.1123ZM30.3433 5.42819C31.5144 5.42819 32.1479 6.49526 32.1479 7.8516C32.1479 9.16278 31.4482 10.2028 30.3433 10.2028C29.1942 10.2028 28.5681 9.13572 28.5681 7.80644C28.5681 6.46796 29.2017 5.42819 30.3433 5.42819ZM30.3506 6.41604C29.7687 6.41604 29.7319 7.25696 29.7319 7.78144C29.7319 8.30592 29.7245 9.31671 30.3433 9.31671C30.9547 9.31671 30.9841 8.52297 30.9841 7.97148C30.9841 7.60969 30.9696 7.17558 30.8664 6.83205C30.7777 6.53353 30.6012 6.416 30.3506 6.416L30.3506 6.41604ZM33.8429 10.1123H33.0505C33.0125 10.1106 32.9766 10.0937 32.9501 10.065C32.9235 10.0363 32.9084 9.99811 32.9077 9.95809L32.9063 5.65918C32.9107 5.61997 32.9288 5.58386 32.957 5.55792C32.9853 5.53197 33.0217 5.51804 33.0592 5.51886H33.797C33.8298 5.52005 33.8613 5.53243 33.8868 5.55413C33.9123 5.57583 33.9304 5.60568 33.9384 5.63916V6.29631H33.9534C34.1763 5.70856 34.4879 5.42819 35.0373 5.42819C35.3937 5.42819 35.7425 5.56383 35.9655 5.93467C36.1734 6.27816 36.1734 6.857 36.1734 7.273V9.97692C36.168 10.0151 36.1495 10.05 36.1215 10.0749C36.0935 10.0999 36.0577 10.1132 36.021 10.1124H35.2237C35.1888 10.1107 35.1556 10.0962 35.1298 10.0715C35.1039 10.0468 35.087 10.0133 35.0821 9.97692V7.64369C35.0821 7.17348 35.1341 6.48616 34.5847 6.48616C34.3914 6.48616 34.2134 6.62179 34.1244 6.82979C34.013 7.09201 33.9981 7.35427 33.9981 7.64369V9.95762C33.9967 9.99967 33.9797 10.0395 33.9507 10.0684C33.9217 10.0974 33.8831 10.1132 33.8431 10.1124L33.8429 10.1123ZM23.5153 8.06018C23.5153 8.38657 23.5228 8.65832 23.3667 8.94831C23.2401 9.18409 23.0391 9.32897 22.8159 9.32897C22.5111 9.32897 22.3324 9.08428 22.3324 8.72177C22.3324 8.00874 22.9401 7.87885 23.5153 7.87885V8.06013V8.06018ZM24.3174 10.1016C24.2917 10.1248 24.2599 10.1391 24.2263 10.1426C24.1927 10.1461 24.1588 10.1386 24.1294 10.1212C23.8655 9.88999 23.8179 9.78314 23.6735 9.56312C23.2367 10.0315 22.9276 10.1718 22.3621 10.1718C21.6925 10.1718 21.1716 9.73678 21.1716 8.86675C21.1716 8.18705 21.5213 7.72483 22.0198 7.49829C22.4514 7.29891 23.0542 7.26265 23.5153 7.2083V7.09953C23.5153 6.90015 23.5303 6.66451 23.4187 6.49234C23.3221 6.33826 23.136 6.27485 22.9723 6.27485C22.6688 6.27485 22.399 6.43855 22.3329 6.77773C22.3193 6.85317 22.2668 6.92769 22.1948 6.93152L21.4238 6.84373C21.4048 6.84105 21.3866 6.83431 21.3702 6.82391C21.3538 6.81352 21.3396 6.7997 21.3285 6.7833C21.3173 6.76691 21.3095 6.74829 21.3055 6.72859C21.3015 6.70889 21.3013 6.68853 21.3051 6.66878C21.4823 5.68414 22.327 5.38672 23.0841 5.38672C23.4708 5.38672 23.9769 5.49548 24.282 5.80339C24.6687 6.18405 24.6317 6.69153 24.6317 7.24436V8.54878C24.6317 8.94113 24.7866 9.1133 24.9319 9.32466C24.9826 9.40066 24.9941 9.49128 24.9292 9.54698C24.7667 9.69023 24.4782 9.95436 24.3195 10.1032L24.3177 10.1012L24.3174 10.1016ZM13.1785 8.06018C13.1785 8.38657 13.186 8.65832 13.0298 8.94831C12.9033 9.18409 12.7022 9.32897 12.4792 9.32897C12.1742 9.32897 11.9957 9.08428 11.9957 8.72177C11.9957 8.00874 12.6034 7.87885 13.1787 7.87885V8.06013L13.1785 8.06018ZM13.9806 10.1016C13.9549 10.1248 13.9231 10.1391 13.8895 10.1426C13.8559 10.1461 13.822 10.1386 13.7926 10.1212C13.5283 9.88999 13.481 9.78314 13.3366 9.56312C12.8998 10.0315 12.5908 10.1718 12.0253 10.1718C11.3556 10.1718 10.8347 9.73678 10.8347 8.86675C10.8347 8.18705 11.1844 7.72483 11.683 7.49829C12.1146 7.29891 12.7174 7.26265 13.1785 7.2083V7.09953C13.1785 6.90015 13.1934 6.66451 13.0819 6.49234C12.9851 6.33826 12.799 6.27485 12.6355 6.27485C12.3321 6.27485 12.0622 6.43855 11.996 6.77773C11.9824 6.85317 11.93 6.92769 11.8578 6.93152L11.0871 6.84373C11.0682 6.84106 11.0499 6.83432 11.0335 6.82393C11.0171 6.81353 11.0029 6.79971 10.9918 6.78332C10.9806 6.76692 10.9728 6.7483 10.9688 6.7286C10.9648 6.7089 10.9646 6.68854 10.9684 6.66878C11.1456 5.68414 11.9901 5.38672 12.7474 5.38672C13.1341 5.38672 13.6402 5.49548 13.9453 5.80339C14.3319 6.18419 14.2947 6.69172 14.2947 7.2445V8.54893C14.2947 8.94127 14.4494 9.11345 14.595 9.3248C14.6458 9.40081 14.6572 9.49142 14.5925 9.54712C14.43 9.69037 14.1412 9.9545 13.9825 10.1033L13.9807 10.1014L13.9806 10.1016Z" fill="#ED1C24"/>
</g>
</g>
<defs>
<clipPath id="clip0_2002_2413">
<rect width="35.3996" height="14.392" fill="white" transform="translate(0.773926)"/>
</clipPath>
</defs>
</svg>
