<svg width="18" height="20" viewBox="0 0 18 20" fill="none" xmlns="http://www.w3.org/2000/svg">
<g id="Buffer" clip-path="url(#clip0_2002_2601)">
<path id="Vector" fill-rule="evenodd" clip-rule="evenodd" d="M17.3386 10.0495L15.7336 9.228C15.6185 9.16916 15.4934 9.13847 15.3666 9.13804C15.2398 9.1376 15.1145 9.16743 14.9991 9.22549L9.50649 11.9952C9.39196 12.053 9.26749 12.0829 9.14155 12.0829C9.01562 12.0829 8.89115 12.053 8.77662 11.9952L3.28323 9.22549C3.16789 9.16743 3.04253 9.1376 2.91576 9.13804C2.78899 9.13847 2.6638 9.16916 2.5488 9.228L0.9437 10.0495C0.891517 10.076 0.847331 10.1184 0.816408 10.1718C0.785484 10.2252 0.769128 10.2873 0.769288 10.3506C0.769449 10.414 0.786119 10.4759 0.817312 10.5291C0.848506 10.5823 0.892906 10.6245 0.945223 10.6506L8.77662 14.5999C8.89118 14.6576 9.01563 14.6874 9.14155 14.6874C9.26748 14.6874 9.39193 14.6576 9.50649 14.5999L17.3371 10.6506C17.3894 10.6245 17.4338 10.5823 17.465 10.5291C17.4962 10.4759 17.5129 10.414 17.5131 10.3506C17.5132 10.2873 17.4969 10.2252 17.4659 10.1718C17.435 10.1184 17.3908 10.076 17.3386 10.0495ZM17.3386 15.1121L15.7336 14.2901C15.6185 14.2314 15.4933 14.2007 15.3665 14.2004C15.2398 14.2 15.1144 14.2299 14.9991 14.288L9.50649 17.0578C9.39196 17.1155 9.26749 17.1454 9.14155 17.1454C9.01562 17.1454 8.89115 17.1155 8.77662 17.0578L3.28323 14.288C3.16792 14.2299 3.04258 14.2 2.9158 14.2004C2.78903 14.2007 2.66383 14.2314 2.5488 14.2901L0.9437 15.1121C0.891625 15.1386 0.847545 15.181 0.8167 15.2344C0.785856 15.2877 0.769544 15.3497 0.769704 15.413C0.769865 15.4762 0.78649 15.5381 0.817605 15.5913C0.848719 15.6444 0.893013 15.6866 0.945223 15.7128L8.77662 19.6621C8.89113 19.72 9.0156 19.7499 9.14155 19.7499C9.26751 19.7499 9.39198 19.72 9.50649 19.6621L17.3371 15.7128C17.3893 15.6866 17.4336 15.6444 17.4647 15.5913C17.4959 15.5381 17.5125 15.4762 17.5126 15.413C17.5128 15.3497 17.4965 15.2877 17.4656 15.2344C17.4348 15.181 17.3907 15.1386 17.3386 15.1121ZM8.71498 0.963365L0.944081 4.94288C0.892005 4.96939 0.847925 5.01184 0.817081 5.06518C0.786236 5.11852 0.769925 5.18051 0.770085 5.24378C0.770245 5.30704 0.786871 5.36893 0.817985 5.42208C0.849099 5.47523 0.893394 5.5174 0.945603 5.54359L8.77624 9.49289C8.8908 9.55055 9.01525 9.5804 9.14117 9.5804C9.2671 9.5804 9.39155 9.55055 9.50611 9.49289L17.3375 5.54359C17.3898 5.51742 17.4342 5.4752 17.4653 5.42198C17.4965 5.36877 17.5131 5.30679 17.5133 5.24343C17.5134 5.18008 17.497 5.11802 17.466 5.06466C17.4351 5.0113 17.3908 4.96888 17.3386 4.94246L9.56813 0.962946C9.43443 0.894715 9.28887 0.859375 9.14155 0.859375C8.99424 0.859375 8.84868 0.894715 8.71498 0.962946V0.963365Z" fill="#ED1C24"/>
</g>
<defs>
<clipPath id="clip0_2002_2601">
<rect width="16.7435" height="18.8901" fill="white" transform="translate(0.769531 0.859375)"/>
</clipPath>
</defs>
</svg>
