<svg width="19" height="20" viewBox="0 0 19 20" fill="none" xmlns="http://www.w3.org/2000/svg">
<g id="Group 99">
<path id="Vector" d="M9.49495 0.00160558C8.72575 0.00240837 7.97247 0.0706454 7.24067 0.200697L7.31862 0.189458C5.39126 0.533052 5.04207 1.25235 5.04207 2.57856V4.33024H9.59676V4.91387H3.33346C3.31755 4.91387 3.29925 4.91306 3.28096 4.91306C1.89928 4.91306 0.748275 5.90772 0.491347 7.2259L0.488165 7.24436C0.284532 7.94439 0.167603 8.74879 0.167603 9.58048C0.167603 10.4122 0.284532 11.2166 0.503279 11.9768L0.488165 11.9158C0.81191 13.2765 1.58508 14.2455 2.90631 14.2455H4.47253V12.1454C4.50833 10.5775 5.76274 9.31716 7.31544 9.28987H7.31782H11.867C13.1269 9.27943 14.1443 8.24705 14.1443 6.97382C14.1443 6.9666 14.1443 6.96018 14.1443 6.95295V6.95375V2.57695C14.0616 1.3238 13.0991 0.321115 11.8789 0.188655L11.8677 0.187852C11.1789 0.068237 10.3858 0 9.57767 0C9.54904 0 9.5212 0 9.49256 0H9.49654L9.49495 0.00160558ZM7.03226 1.4105H7.04578C7.52543 1.4105 7.91361 1.80306 7.91361 2.28634C7.91361 2.76962 7.52464 3.16218 7.04578 3.16218C6.56772 3.16218 6.17955 2.77123 6.17796 2.28875C6.17796 2.28714 6.17796 2.28474 6.17796 2.28233C6.17796 1.80387 6.55977 1.41532 7.03226 1.4105H7.03306H7.03226Z" fill="#ED1C24"/>
<path id="Vector_2" d="M14.6549 4.83984V6.86501C14.6375 8.44005 13.3819 9.71554 11.8199 9.75697H11.8159H7.27688C6.01969 9.78326 5.01013 10.8102 5.00537 12.0745V16.4188C5.00537 17.6545 6.07604 18.3819 7.27688 18.7372C7.95548 18.9579 8.73646 19.0853 9.54681 19.0853C10.3572 19.0853 11.1381 18.9579 11.8699 18.722L11.8159 18.7372C12.9588 18.405 14.0874 17.7349 14.0874 16.4188V14.6789H9.54839V14.0997H16.3598C17.6804 14.0997 18.1725 13.1747 18.6321 11.7877C18.8543 11.0946 18.9821 10.2971 18.9821 9.46937C18.9821 8.64161 18.8543 7.84413 18.617 7.09605L18.6321 7.15182C18.3059 5.83251 17.6796 4.83984 16.3598 4.83984H14.6549ZM12.1025 15.8396H12.1159C12.5945 15.8396 12.9819 16.2292 12.9819 16.7088C12.9819 17.1884 12.5937 17.578 12.1159 17.578C11.6374 17.578 11.25 17.1884 11.25 16.7088C11.25 16.708 11.25 16.7064 11.25 16.7056C11.25 16.704 11.25 16.7017 11.25 16.7001C11.25 16.226 11.631 15.842 12.1025 15.8396Z" fill="#ED1C24"/>
</g>
</svg>
