<svg width="17" height="17" viewBox="0 0 17 17" fill="none" xmlns="http://www.w3.org/2000/svg">
<g id="Group">
<path id="Vector" fill-rule="evenodd" clip-rule="evenodd" d="M14.9139 0.429688H2.53717C1.47243 0.429688 0.608888 1.29207 0.607437 2.3568V14.7153C0.605379 15.2284 0.807771 15.7213 1.16989 16.0849C1.532 16.4484 2.02402 16.6528 2.53717 16.6528H14.9139C15.4266 16.6521 15.9179 16.4474 16.2795 16.0839C16.641 15.7204 16.8431 15.228 16.841 14.7153V2.3568C16.8396 1.29308 15.9776 0.43112 14.9139 0.429688ZM7.60852 12.1146C7.60784 12.2861 7.53887 12.4503 7.41686 12.5708C7.29485 12.6914 7.12986 12.7584 6.95835 12.757H4.25363C3.89987 12.7555 3.61386 12.4684 3.61386 12.1146V4.06546C3.61386 3.7117 3.89987 3.42452 4.25363 3.42309H6.95835C7.31253 3.42451 7.59929 3.71128 7.60072 4.06546L7.60852 12.1146ZM13.8502 8.41902C13.8502 8.59075 13.7815 8.75533 13.6593 8.87603C13.5371 8.99672 13.3717 9.06348 13.2 9.06144H10.4953C10.1411 9.05997 9.85435 8.7732 9.85292 8.41902V4.06546C9.85435 3.71128 10.1411 3.42451 10.4953 3.42309H13.2C13.5538 3.42452 13.8398 3.7117 13.8398 4.06546L13.8502 8.41902Z" fill="#ED1C24"/>
</g>
</svg>
