<svg width="18" height="26" viewBox="0 0 18 26" fill="none" xmlns="http://www.w3.org/2000/svg">
<g id="Html" clip-path="url(#clip0_2002_2406)">
<path id="Vector" d="M17.3998 5.26562L15.8174 23.0599L8.70444 25.0393L1.61104 23.0626L0.0302734 5.26562H17.3998Z" fill="#ED1C24"/>
<path id="Vector_2" d="M8.71484 23.5281L14.4625 21.9287L15.8147 6.72266H8.71484V23.5281Z" fill="#ED1C24"/>
<path id="Vector_3" d="M5.63888 11.0851H8.71503V8.90234H3.26245L3.31447 9.48792L3.84895 15.5029H8.71503V13.3202H5.83762L5.63888 11.0851ZM6.12897 16.5943H3.94611L4.25073 20.0215L8.70502 21.2627L8.71503 21.26V18.989L8.7055 18.9915L6.28379 18.3351L6.12897 16.5943Z" fill="#EBEBEB"/>
<path id="Vector_4" d="M1.64673 0.429688H2.75177V1.52559H3.76266V0.429688H4.86777V3.74837H3.76272V2.63708H2.75184V3.74837H1.6468V0.429688H1.64673ZM6.32087 1.53024H5.34819V0.429688H8.39942V1.53024H7.42612V3.74837H6.32108V1.53024H6.32101H6.32087ZM8.88365 0.429688H10.0359L10.7447 1.59578L11.4528 0.429688H12.6055V3.74837H11.5049V2.10345L10.7447 3.28342H10.7256L9.96487 2.10345V3.74837H8.88365V0.429688ZM13.1554 0.429688H14.2608V2.65144H15.8148V3.74837H13.1553V0.429688H13.1554Z" fill="#ED1C24"/>
<path id="Vector_5" d="M8.70734 15.5029H11.385L11.1325 18.3338L8.70728 18.9908V21.2617L13.1651 20.0215L13.1978 19.6528L13.7088 13.9063L13.7619 13.3202H8.70734V15.5029ZM8.70734 11.0797V11.0851H13.9597L14.0033 10.5945L14.1025 9.48792L14.1544 8.90234H8.70734V11.0798V11.0797Z" fill="white"/>
</g>
<defs>
<clipPath id="clip0_2002_2406">
<rect width="17.4316" height="24.6724" fill="white" transform="translate(0 0.429688)"/>
</clipPath>
</defs>
</svg>
