<svg width="22" height="254" viewBox="0 0 22 254" fill="none" xmlns="http://www.w3.org/2000/svg">
<g id="Group 197">
<g id="&#240;&#159;&#166;&#134; icon &#34;code&#34;">
<path id="Vector" d="M6.00406 242.694L2.72735 245.226L6.00406 247.758C6.22095 247.926 6.35716 248.166 6.38273 248.427C6.40829 248.688 6.32111 248.947 6.14037 249.148C5.95963 249.35 5.70014 249.476 5.41897 249.5C5.1378 249.523 4.85799 249.442 4.6411 249.275L0.383037 245.984C0.263151 245.892 0.166696 245.776 0.100504 245.645C0.0343112 245.514 0 245.371 0 245.226C0 245.081 0.0343112 244.938 0.100504 244.807C0.166696 244.676 0.263151 244.56 0.383037 244.468L4.6411 241.177C4.7485 241.094 4.87247 241.032 5.00593 240.993C5.1394 240.955 5.27975 240.941 5.41897 240.953C5.55819 240.964 5.69355 241.001 5.81733 241.062C5.94111 241.122 6.05088 241.204 6.14037 241.304C6.22987 241.403 6.29733 241.518 6.33891 241.642C6.3805 241.766 6.39538 241.896 6.38273 242.025C6.37007 242.154 6.33011 242.28 6.26514 242.394C6.20017 242.509 6.11145 242.611 6.00406 242.694ZM21.617 244.468L17.3589 241.177C17.2515 241.094 17.1275 241.032 16.9941 240.993C16.8606 240.955 16.7203 240.941 16.581 240.953C16.4418 240.964 16.3064 241.001 16.1827 241.062C16.0589 241.122 15.9491 241.204 15.8596 241.304C15.7701 241.403 15.7027 241.518 15.6611 241.642C15.6195 241.766 15.6046 241.896 15.6173 242.025C15.6299 242.154 15.6699 242.28 15.7349 242.394C15.7998 242.509 15.8885 242.611 15.9959 242.694L19.2727 245.226L15.9959 247.758C15.8885 247.841 15.7998 247.943 15.7349 248.058C15.6699 248.172 15.6299 248.298 15.6173 248.427C15.5917 248.688 15.6789 248.947 15.8596 249.148C16.0404 249.35 16.2999 249.476 16.581 249.5C16.7203 249.511 16.8606 249.497 16.9941 249.459C17.1275 249.42 17.2515 249.358 17.3589 249.275L21.617 245.984C21.7368 245.892 21.8333 245.776 21.8995 245.645C21.9657 245.514 22 245.371 22 245.226C22 245.081 21.9657 244.938 21.8995 244.807C21.8333 244.676 21.7368 244.56 21.617 244.468ZM14.2025 237.059C13.9372 236.97 13.6444 236.982 13.3886 237.093C13.1328 237.203 12.9348 237.404 12.8383 237.65L7.16088 252.128C7.11302 252.25 7.09152 252.379 7.09761 252.508C7.10369 252.638 7.13725 252.765 7.19635 252.883C7.25545 253 7.33895 253.106 7.44207 253.193C7.54519 253.281 7.6659 253.349 7.79733 253.393C7.92875 253.438 8.0683 253.457 8.208 253.452C8.34771 253.446 8.48483 253.415 8.61153 253.36C8.73824 253.305 8.85204 253.228 8.94644 253.132C9.04084 253.036 9.11399 252.924 9.1617 252.802L14.8391 238.324C14.8869 238.203 14.9083 238.073 14.9022 237.944C14.8961 237.814 14.8625 237.687 14.8034 237.57C14.7442 237.452 14.6608 237.347 14.5577 237.259C14.4546 237.172 14.3339 237.104 14.2025 237.059Z" fill="#ED1C24"/>
</g>
<g id="&#240;&#159;&#166;&#134; icon &#34;laptop computer&#34;">
<g id="Group">
<path id="Vector_2" d="M3.81615 1H18.3421C18.8435 1 19.25 1.39404 19.25 1.8801V10.6812C19.25 11.1672 18.8435 11.5613 18.3421 11.5613H3.81615C3.31475 11.5613 2.90828 11.1672 2.90828 10.6812V1.8801C2.90828 1.39404 3.31475 1 3.81615 1Z" stroke="#ED1C24" stroke-width="1.2767" stroke-linecap="round" stroke-linejoin="round"/>
<path id="Vector_3" d="M20.1575 15.082H2.00001" stroke="#ED1C24" stroke-width="1.2767" stroke-linecap="round" stroke-linejoin="round"/>
</g>
</g>
<g id="&#240;&#159;&#166;&#134; icon &#34;layers&#34;">
<g id="Group_2">
<path id="Vector_4" d="M2.9393 121.856L10.6673 125.576C10.7343 125.608 10.809 125.625 10.885 125.625C10.9609 125.625 11.0357 125.608 11.1027 125.576L18.8306 121.856C18.9011 121.825 18.9598 121.777 18.9992 121.716C19.0387 121.656 19.0571 121.587 19.0523 121.517C19.0474 121.448 19.0195 121.381 18.972 121.326C18.9245 121.27 18.8595 121.228 18.7853 121.205L11.0573 118.409C10.9469 118.369 10.823 118.369 10.7126 118.409L2.98466 121.205C2.9104 121.228 2.84544 121.27 2.79795 121.326C2.75045 121.381 2.72252 121.448 2.71768 121.517C2.71283 121.587 2.73128 121.656 2.77071 121.716C2.81014 121.777 2.86879 121.825 2.9393 121.856Z" fill="#ED1C24"/>
<path id="Vector_5" d="M18.7856 124.564L17.1257 123.938L11.103 126.838C11.036 126.87 10.9612 126.886 10.8853 126.886C10.8094 126.886 10.7346 126.87 10.6676 126.838L4.64485 123.938L2.98497 124.564C2.91467 124.597 2.8558 124.646 2.81473 124.706C2.77366 124.766 2.75195 124.835 2.75195 124.906C2.75195 124.976 2.77366 125.045 2.81473 125.105C2.8558 125.165 2.91467 125.215 2.98497 125.247L10.7129 129.184C10.7785 129.22 10.8538 129.239 10.9306 129.239C11.0075 129.239 11.0828 129.22 11.1483 129.184L18.8763 125.247C18.9432 125.208 18.9965 125.153 19.0302 125.088C19.064 125.023 19.0769 124.952 19.0675 124.881C19.0581 124.81 19.0268 124.743 18.977 124.687C18.9273 124.631 18.861 124.589 18.7856 124.564Z" fill="#ED1C24"/>
<path id="Vector_6" d="M18.785 128.132L17.37 127.586L11.1024 130.607C11.0354 130.639 10.9606 130.655 10.8847 130.655C10.8088 130.655 10.734 130.639 10.667 130.607L4.39935 127.586L2.98437 128.132C2.91208 128.166 2.85148 128.216 2.80918 128.277C2.76688 128.339 2.74451 128.41 2.74451 128.482C2.74451 128.554 2.76688 128.625 2.80918 128.686C2.85148 128.748 2.91208 128.798 2.98437 128.831L10.7123 132.849C10.7793 132.881 10.8541 132.897 10.93 132.897C11.006 132.897 11.0807 132.881 11.1477 132.849L18.8757 128.831C18.9446 128.791 18.9996 128.735 19.0346 128.669C19.0696 128.603 19.0831 128.53 19.0737 128.457C19.0643 128.385 19.0323 128.316 18.9813 128.258C18.9303 128.201 18.8624 128.157 18.785 128.132Z" fill="#ED1C24"/>
</g>
</g>
</g>
</svg>
