<svg width="19" height="26" viewBox="0 0 19 26" fill="none" xmlns="http://www.w3.org/2000/svg">
<g id="javascript" clip-path="url(#clip0_2002_2449)">
<path id="Path 275" d="M18.4859 5.04688H0.249756L1.95935 23.6399L9.3669 25.747L16.7745 23.6399L18.4859 5.04688Z" fill="#ED1C24"/>
<path id="Path 276" d="M9.3667 6.55859V24.1683L15.3685 22.463L16.8286 6.55859H9.3667Z" fill="#ED1C24"/>
<path id="Path 277" d="M14.1419 8.83984H4.91375L4.271 15.8006L4.28423 15.7573H12.124L11.8687 18.7024L9.36729 19.4241L6.82901 18.6908L6.67696 16.9082H4.3729L4.70159 20.4701L9.36729 21.7984L14.0351 20.4701L14.6778 13.4786H6.35756L6.46434 11.1492H12.237L12.3234 12.4839H14.647L14.1419 8.83984Z" fill="white"/>
<path id="Path 278" d="M9.36914 8.83984H4.91375L4.271 15.8006L4.28423 15.7573H9.36891V13.4865H6.68207L6.78885 11.1571H9.36914V8.83984ZM6.68207 16.9094H4.37267L4.70135 20.4694L9.36705 21.7963V19.4274L6.82877 18.6922L6.68207 16.9094Z" fill="#EBEBEB"/>
<path id="Path 279" d="M7.59381 2.30263H5.97034V3.47152H8.75583V0H7.59521L7.59381 2.30263ZM12.7648 0.018624H9.93479V1.23384C10.3127 1.61284 10.5098 1.79512 11.0664 2.34407H9.93479V3.4522H12.7646V2.34593L11.6342 1.2357H12.7658L12.7648 0.018624Z" fill="#ED1C24"/>
</g>
<defs>
<clipPath id="clip0_2002_2449">
<rect width="18.2361" height="25.7452" fill="white" transform="translate(0.249634)"/>
</clipPath>
</defs>
</svg>
