<svg width="48" height="48" viewBox="0 0 48 48" fill="none" xmlns="http://www.w3.org/2000/svg">
<g id="Marketing Team">
<g id="Glyph">
<path id="Vector" d="M28.3861 29.339C30.8084 26.9167 30.8084 22.9895 28.3861 20.5673C25.9639 18.1451 22.0367 18.1451 19.6145 20.5673C17.1922 22.9895 17.1922 26.9167 19.6145 29.339C22.0367 31.7612 25.9639 31.7612 28.3861 29.339Z" fill="#101942"/>
<path id="Vector_2" d="M41.5802 31.0301C44.1079 30.4334 45.6732 27.9007 45.0766 25.373C44.4799 22.8454 41.9471 21.28 39.4195 21.8767C36.8918 22.4733 35.3265 25.0061 35.9231 27.5337C36.5198 30.0614 39.0526 31.6268 41.5802 31.0301Z" fill="#101942"/>
<path id="Vector_3" d="M8.58025 31.03C11.1079 30.4333 12.6732 27.9005 12.0765 25.3728C11.4798 22.8452 8.94698 21.2799 6.41935 21.8766C3.89171 22.4733 2.32639 25.0061 2.9231 27.5337C3.51982 30.0614 6.05261 31.6267 8.58025 31.03Z" fill="#101942"/>
<path id="Vector_4" d="M46.14 34.498C44.4323 33.4924 42.4817 32.9736 40.5 32.998C38.2325 32.9551 36.0119 33.6471 34.17 34.9705C36.6 37.483 37.98 41.053 37.98 45.3205C37.98 45.3805 37.965 45.988 37.9575 46.498H45.75C45.949 46.498 46.1397 46.419 46.2804 46.2783C46.421 46.1377 46.5 45.9469 46.5 45.748V35.143C46.5008 35.0135 46.468 34.8861 46.405 34.7731C46.3419 34.6601 46.2506 34.5653 46.14 34.498Z" fill="#101942"/>
<path id="Vector_5" d="M14.985 35.9842C12.78 38.2267 11.52 41.4592 11.52 45.3217C11.52 45.3967 11.535 45.9967 11.5425 46.4992H36.4575C36.465 45.9967 36.48 45.3967 36.48 45.3217C36.48 41.4592 35.22 38.2267 33.015 35.9842C31.8285 34.818 30.4179 33.9044 28.8685 33.2985C27.319 32.6926 25.6629 32.4071 24 32.4592C22.3371 32.4071 20.681 32.6926 19.1315 33.2984C17.5821 33.9043 16.1715 34.8179 14.985 35.9842ZM32.25 40.4992C32.3984 40.4992 32.5434 40.5431 32.6667 40.6256C32.79 40.708 32.8862 40.8251 32.9429 40.9621C32.9997 41.0992 33.0145 41.25 32.9856 41.3955C32.9567 41.541 32.8852 41.6746 32.7804 41.7795C32.6755 41.8844 32.5418 41.9558 32.3963 41.9848C32.2509 42.0137 32.1001 41.9988 31.963 41.9421C31.826 41.8853 31.7088 41.7892 31.6264 41.6658C31.544 41.5425 31.5 41.3975 31.5 41.2492C31.5 41.0503 31.579 40.8595 31.7197 40.7188C31.8603 40.5782 32.0511 40.4992 32.25 40.4992ZM26.535 36.4867C26.5663 36.393 26.6158 36.3064 26.6807 36.2318C26.7456 36.1573 26.8246 36.0964 26.9131 36.0525C27.0016 36.0086 27.0979 35.9826 27.1965 35.976C27.2951 35.9694 27.394 35.9824 27.4875 36.0142C28.9525 36.4847 30.26 37.3487 31.2675 38.5117C31.3968 38.6628 31.4608 38.8592 31.4453 39.0575C31.4298 39.2558 31.3362 39.4399 31.185 39.5692C31.0338 39.6985 30.8375 39.7624 30.6392 39.7469C30.4409 39.7315 30.2568 39.6378 30.1275 39.4867C29.2946 38.5297 28.2156 37.819 27.0075 37.4317C26.9137 37.4017 26.8269 37.3533 26.7521 37.2892C26.6774 37.2252 26.6161 37.1468 26.5721 37.0587C26.5281 36.9707 26.5021 36.8747 26.4958 36.7765C26.4894 36.6782 26.5027 36.5797 26.535 36.4867Z" fill="#101942"/>
<path id="Vector_6" d="M2.25013 46.5H10.0351C10.0351 45.99 10.0201 45.3825 10.0201 45.3225C10.0201 41.055 11.4001 37.485 13.8301 34.9725C11.9883 33.6491 9.76772 32.9571 7.50013 33C5.51844 32.9757 3.56791 33.4944 1.86013 34.5C1.74957 34.5673 1.65831 34.6621 1.59522 34.7751C1.53214 34.8882 1.49938 35.0156 1.50013 35.145V45.75C1.50013 45.9489 1.57915 46.1397 1.7198 46.2804C1.86046 46.421 2.05122 46.5 2.25013 46.5ZM27.1501 1.50001C26.7427 1.49853 26.344 1.61729 26.0038 1.84142C25.6635 2.06556 25.3971 2.3851 25.2376 2.76001L17.1151 6.05251H14.6551C13.8532 6.05157 13.0777 6.33846 12.4694 6.86103C11.8612 7.38359 11.4607 8.1071 11.3408 8.89997C11.2209 9.69285 11.3896 10.5024 11.8162 11.1814C12.2427 11.8605 12.8988 12.3638 13.6651 12.6L14.8876 16.9575C14.9812 17.263 15.1715 17.5299 15.4299 17.7179C15.6882 17.9059 16.0006 18.0049 16.3201 18H17.7451C17.9657 18.0065 18.1848 17.9621 18.3854 17.8703C18.5861 17.7785 18.7628 17.6417 18.9021 17.4705C19.0413 17.2993 19.1393 17.0984 19.1884 16.8833C19.2375 16.6682 19.2364 16.4446 19.1851 16.23L18.3526 13.2525L25.2151 15.99C25.39 16.4428 25.7181 16.82 26.1422 17.056C26.5664 17.292 27.0598 17.3719 27.5368 17.2819C28.0137 17.1918 28.4441 16.9375 28.753 16.5631C29.0619 16.1887 29.2298 15.7179 29.2276 15.2325V12.2775C29.8796 12.121 30.4598 11.7495 30.8749 11.223C31.29 10.6964 31.5157 10.0455 31.5157 9.37501C31.5157 8.70455 31.29 8.0536 30.8749 7.52706C30.4598 7.00052 29.8796 6.62906 29.2276 6.47251V3.58501C29.228 3.03321 29.0095 2.50379 28.62 2.11291C28.2306 1.72202 27.7019 1.5016 27.1501 1.50001ZM16.5076 11.2575C15.7426 11.2575 14.6551 11.2575 14.6551 11.265C14.1628 11.265 13.6907 11.0694 13.3426 10.7213C12.9945 10.3732 12.7989 9.90107 12.7989 9.40876C12.7989 8.91646 12.9945 8.44431 13.3426 8.0962C13.6907 7.74808 14.1628 7.55251 14.6551 7.55251H16.5076V11.2575ZM27.7276 15.2325C27.7276 15.3867 27.6664 15.5345 27.5574 15.6435C27.4484 15.7525 27.3005 15.8138 27.1464 15.8138C26.9922 15.8138 26.8444 15.7525 26.7354 15.6435C26.6264 15.5345 26.5651 15.3867 26.5651 15.2325V3.58501C26.5651 3.43086 26.6264 3.28301 26.7354 3.17401C26.8444 3.065 26.9922 3.00376 27.1464 3.00376C27.3005 3.00376 27.4484 3.065 27.5574 3.17401C27.6664 3.28301 27.7276 3.43086 27.7276 3.58501V15.2325ZM33.7501 8.62501C33.5512 8.62501 33.3605 8.70403 33.2198 8.84468C33.0792 8.98534 33.0001 9.1761 33.0001 9.37501C33.0001 9.57393 33.0792 9.76469 33.2198 9.90534C33.3605 10.046 33.5512 10.125 33.7501 10.125H36.0001C36.199 10.125 36.3898 10.046 36.5305 9.90534C36.6711 9.76469 36.7501 9.57393 36.7501 9.37501C36.7501 9.1761 36.6711 8.98534 36.5305 8.84468C36.3898 8.70403 36.199 8.62501 36.0001 8.62501H33.7501ZM35.4909 3.90676L33.0699 5.78176C32.9179 5.90529 32.8203 6.08335 32.7979 6.27788C32.7755 6.47242 32.8301 6.66801 32.9499 6.82285C33.0698 6.97769 33.2455 7.07951 33.4395 7.10654C33.6334 7.13357 33.8302 7.08368 33.9879 6.96751L36.4089 5.09251C36.5662 4.97078 36.6688 4.79153 36.6939 4.59419C36.7191 4.39686 36.6649 4.1976 36.5431 4.04026C36.4214 3.88292 36.2421 3.78039 36.0448 3.75521C35.8475 3.73003 35.6482 3.78428 35.4909 3.90601V3.90676ZM33.0699 12.9668L35.4909 14.8418C35.5685 14.9048 35.6579 14.9518 35.7539 14.9798C35.8499 15.0078 35.9505 15.0163 36.0498 15.0049C36.1492 14.9934 36.2452 14.9622 36.3323 14.9131C36.4194 14.864 36.4958 14.798 36.557 14.7189C36.6182 14.6399 36.663 14.5494 36.6888 14.4527C36.7145 14.3561 36.7206 14.2553 36.7068 14.1563C36.693 14.0572 36.6595 13.962 36.6084 13.8761C36.5572 13.7901 36.4894 13.7153 36.4089 13.656L33.9879 11.781C33.8302 11.6649 33.6334 11.615 33.4395 11.642C33.2455 11.669 33.0698 11.7708 32.9499 11.9257C32.8301 12.0805 32.7755 12.2761 32.7979 12.4706C32.8203 12.6652 32.9179 12.8432 33.0699 12.9668Z" fill="#101942"/>
</g>
</g>
</svg>
