<svg width="25" height="27" viewBox="0 0 25 27" fill="none" xmlns="http://www.w3.org/2000/svg">
<g id="Mongodb" clip-path="url(#clip0_2002_2493)">
<path id="Vector" fill-rule="evenodd" clip-rule="evenodd" d="M17.0584 20.3589C17.09 20.2929 17.1203 20.2347 17.1462 20.1744C17.1624 20.1358 17.1874 20.1282 17.2227 20.1292C17.4341 20.136 17.6454 20.1434 17.857 20.146C18.0367 20.1483 18.2167 20.1449 18.3965 20.1429C18.5991 20.1405 18.8018 20.1292 19.0042 20.1358C19.2737 20.1447 19.5364 20.2026 19.78 20.3335C20.0711 20.4901 20.2911 20.7282 20.4409 21.0418C20.5366 21.242 20.5919 21.4542 20.6138 21.6797C20.6455 22.0063 20.6241 22.3253 20.5285 22.6375C20.4102 23.0244 20.1859 23.3204 19.8747 23.5419C19.6351 23.7123 19.3725 23.8129 19.0911 23.8701C18.7933 23.9308 18.4946 23.9107 18.1959 23.9113C17.8683 23.9123 17.5409 23.9041 17.2133 23.8995C17.156 23.8989 17.1478 23.8871 17.163 23.8276L17.1771 23.7728C17.2091 23.6636 17.2263 23.6587 17.3282 23.6406C17.3987 23.6283 17.4719 23.5996 17.5311 23.557C17.5654 23.5323 17.5797 23.4677 17.5932 23.418C17.6048 23.3745 17.6054 23.3268 17.6058 23.2809C17.6113 22.5854 17.617 21.8901 17.6205 21.1949C17.6212 21.0193 17.6177 20.8432 17.609 20.6677C17.6028 20.5449 17.5426 20.4607 17.4083 20.4315C17.3039 20.4088 17.1987 20.3912 17.0937 20.3709L17.0584 20.3589ZM20.0556 22.0473C20.0416 21.9088 20.0348 21.769 20.0122 21.6325C19.9582 21.3049 19.8268 21.0194 19.5957 20.7955C19.2221 20.4337 18.7718 20.3774 18.2997 20.4197C18.1923 20.4293 18.1691 20.4693 18.1673 20.5895C18.1645 20.7601 18.1616 20.9307 18.1612 21.1013C18.1598 21.6423 18.1592 22.1833 18.1593 22.7243C18.1593 22.8782 18.1606 23.0321 18.1645 23.1857C18.1688 23.3429 18.2211 23.4759 18.3624 23.5371C18.5852 23.6334 18.8197 23.6452 19.0537 23.6063C19.4275 23.5445 19.6891 23.3079 19.8649 22.9529C20.0041 22.6713 20.0436 22.3637 20.0556 22.0473ZM20.9617 23.8907C20.9573 23.8064 20.9891 23.7368 21.0284 23.6729C21.0391 23.6556 21.0756 23.6565 21.1008 23.6511L21.3147 23.6053C21.3902 23.5879 21.4301 23.5327 21.4408 23.4521C21.4479 23.3989 21.4547 23.3451 21.4553 23.2913C21.4605 22.8655 21.4655 22.4396 21.4679 22.0138C21.4703 21.5873 21.4693 21.1608 21.4698 20.7344L21.4682 20.6529C21.4607 20.5158 21.4 20.4447 21.275 20.4244L21.004 20.3791C20.9706 20.3742 20.9585 20.3567 20.9707 20.3245C20.9916 20.2695 21.0117 20.2124 21.0412 20.1629C21.0522 20.1446 21.0894 20.1376 21.1144 20.1382C21.2439 20.1405 21.3733 20.1512 21.5028 20.1512L22.6298 20.1455C22.847 20.1456 23.0566 20.1871 23.2513 20.3005C23.4655 20.4251 23.5852 20.6176 23.6192 20.8796C23.6547 21.1548 23.5777 21.3866 23.3928 21.5706C23.3168 21.6464 23.2184 21.6958 23.1303 21.7574L23.1015 21.7769C23.1832 21.8097 23.261 21.838 23.3367 21.8718C23.5582 21.9711 23.7343 22.1258 23.8273 22.3727C23.9007 22.5676 23.9005 22.7707 23.8566 22.9725C23.7883 23.2883 23.5968 23.4983 23.3479 23.6569C23.1144 23.8058 22.8617 23.8924 22.5926 23.9066C22.3445 23.9199 22.0952 23.9144 21.8466 23.9171L21.7025 23.9177C21.463 23.9115 21.2233 23.9045 20.9835 23.8972L20.9617 23.8907ZM21.9962 22.6556L21.9986 22.6556C21.9985 22.7893 21.9966 22.9229 21.9987 23.0565C22.0001 23.143 21.9972 23.232 22.0143 23.3153C22.0399 23.4398 22.092 23.5522 22.2203 23.5881C22.3935 23.6369 22.5706 23.6469 22.746 23.614C22.9656 23.5727 23.1409 23.4531 23.2373 23.2256C23.3088 23.0566 23.3196 22.8773 23.2954 22.694C23.2632 22.4527 23.1457 22.2775 22.9501 22.1625C22.8219 22.087 22.685 22.0407 22.5391 22.0344C22.3757 22.0274 22.2121 22.0268 22.0487 22.0211C22.0028 22.0196 21.9964 22.045 21.9965 22.086C21.9972 22.2757 21.9964 22.4656 21.9962 22.6556ZM22.3452 21.7474C22.4346 21.7426 22.5357 21.7413 22.6363 21.7305C22.8289 21.7099 22.9646 21.6047 23.0356 21.4043C23.0717 21.3026 23.0703 21.1979 23.0714 21.092C23.0745 20.8165 22.927 20.5904 22.6867 20.4967C22.5011 20.4243 22.3097 20.4228 22.1172 20.4282C22.0392 20.4304 22.0043 20.4675 22.003 20.553L21.9901 21.6677C21.9895 21.7119 22.007 21.731 22.0466 21.7325L22.3452 21.7474Z" fill="#ED1C24"/>
<path id="Vector_2" fill-rule="evenodd" clip-rule="evenodd" d="M2.7419 23.6501L2.72805 23.8418C2.60119 23.8416 2.48422 23.8405 2.36724 23.8417C2.14691 23.8438 1.92657 23.8474 1.70605 23.8505L1.68478 23.8519C1.65326 23.8478 1.59598 23.8477 1.5945 23.8376C1.58524 23.7805 1.5883 23.7206 1.5908 23.6615C1.59099 23.6548 1.61246 23.6463 1.62496 23.6431L1.79646 23.6017C1.9034 23.5716 1.94114 23.5215 1.94633 23.4012C1.95227 23.2658 1.95822 23.1302 1.95894 22.9947C1.96102 22.6613 1.95956 22.3282 1.96127 21.9948C1.96155 21.9168 1.93681 21.8587 1.87006 21.8269C1.79063 21.7886 1.71082 21.7511 1.63046 21.7157C1.59242 21.6989 1.54299 21.6897 1.54754 21.6341C1.55208 21.5775 1.60005 21.5627 1.64521 21.5516C1.8322 21.5054 2.01938 21.4603 2.20581 21.411C2.2659 21.3951 2.3234 21.3682 2.39526 21.3411C2.39894 21.3833 2.40579 21.4235 2.40499 21.4637L2.39376 21.6548C2.39354 21.6763 2.40377 21.7052 2.41849 21.7172C2.42744 21.7247 2.45749 21.7112 2.47243 21.6986C2.63192 21.5668 2.80071 21.4531 2.99313 21.387C3.2912 21.2845 3.54686 21.3803 3.72562 21.6602C3.78856 21.7587 3.78874 21.7587 3.87632 21.69C4.02665 21.5714 4.18386 21.4669 4.35969 21.3981C4.74568 21.2469 5.11615 21.44 5.24977 21.8632C5.29847 22.0168 5.31693 22.1754 5.31636 22.3375L5.31152 23.4134C5.31123 23.5021 5.33822 23.5527 5.41579 23.5804C5.50288 23.6116 5.59315 23.6331 5.69125 23.6613L5.66827 23.8462C5.5567 23.8461 5.45409 23.8451 5.35148 23.846C5.10074 23.8481 4.85 23.8491 4.59944 23.8551C4.55578 23.8562 4.54442 23.8444 4.54223 23.7999C4.53513 23.6576 4.53401 23.6578 4.65718 23.6259L4.69861 23.6143C4.81898 23.5788 4.85914 23.5386 4.86024 23.4058C4.86349 23.0244 4.87123 22.6421 4.85397 22.2615C4.83597 21.8667 4.54836 21.6561 4.19676 21.7567C4.08198 21.7894 3.978 21.8469 3.88127 21.9215C3.84859 21.9469 3.8424 21.9761 3.84496 22.0206C3.85464 22.1888 3.86059 22.3571 3.8617 22.5255C3.86358 22.8201 3.85987 23.1148 3.86063 23.4097C3.86086 23.5291 3.8983 23.5748 4.00666 23.6026L4.16762 23.6432L4.19746 23.6506C4.19963 23.7066 4.20161 23.7627 4.19912 23.8187C4.19759 23.8539 4.17258 23.8569 4.1446 23.8562C3.98808 23.8517 3.83137 23.8458 3.67485 23.846C3.48437 23.8462 3.29407 23.8518 3.10377 23.8552L3.059 23.8551C3.05907 23.7956 3.05652 23.7387 3.06107 23.6821C3.06202 23.6685 3.08406 23.6494 3.09917 23.6452L3.28691 23.6022C3.36659 23.581 3.40471 23.5365 3.40929 23.4484C3.43105 23.0403 3.44684 22.6319 3.41207 22.2239C3.40527 22.1447 3.38167 22.0642 3.35153 21.9913C3.25573 21.76 3.03963 21.6632 2.79011 21.7323C2.6716 21.7651 2.56463 21.824 2.46342 21.8984C2.41562 21.9337 2.3928 21.9803 2.39273 22.0394C2.39224 22.4466 2.39306 22.8538 2.39369 23.2607L2.39555 23.4177C2.39766 23.5272 2.44031 23.5849 2.54009 23.6086C2.60425 23.6246 2.66916 23.6354 2.7419 23.6501Z" fill="#ED1C24"/>
<path id="Vector_3" fill-rule="evenodd" clip-rule="evenodd" d="M14.024 21.3981C14.0528 21.5512 14.052 21.6889 13.9486 21.7931C13.8458 21.8968 13.716 21.8616 13.5894 21.8383C13.601 21.911 13.614 21.9728 13.6203 22.0353C13.6658 22.5003 13.4816 22.845 13.0853 23.0416C12.9356 23.1158 12.7768 23.1431 12.6147 23.1571C12.5341 23.1639 12.4635 23.2308 12.4557 23.3029C12.4478 23.376 12.4899 23.4512 12.5742 23.4733C12.6736 23.4992 12.7773 23.5067 12.8793 23.5196C13.0983 23.5471 13.3198 23.5598 13.5361 23.6028C13.8633 23.6674 14.0456 23.9786 13.9875 24.3363C13.9358 24.6547 13.7661 24.8861 13.5297 25.0635C13.1314 25.3631 12.6947 25.4502 12.23 25.2964C11.9643 25.2083 11.777 25.0177 11.7126 24.7098C11.6804 24.5556 11.7151 24.4161 11.8217 24.3117C11.9485 24.188 12.0865 24.0777 12.2193 23.961L12.2623 23.9141L12.2131 23.8765C12.0779 23.8064 11.9698 23.7106 11.928 23.5444C11.9137 23.4882 11.9287 23.4512 11.9726 23.4224C12.0473 23.3736 12.1216 23.324 12.1953 23.2735C12.2301 23.25 12.2644 23.2257 12.2967 23.1985C12.3408 23.162 12.3369 23.1348 12.2843 23.1136C12.162 23.0643 12.0533 22.9928 11.9691 22.8831C11.8285 22.6999 11.7888 22.4819 11.8007 22.2519C11.8192 21.8924 11.9988 21.6559 12.2904 21.504C12.637 21.3236 12.9846 21.3127 13.3376 21.4781C13.4681 21.5392 13.6058 21.5524 13.7459 21.542C13.8506 21.5341 13.942 21.4911 14.024 21.3981ZM12.7443 23.9715C12.4842 23.9686 12.4027 24.0035 12.2498 24.1724C12.0787 24.3618 12.0793 24.6248 12.2496 24.8155C12.3789 24.9601 12.5404 25.028 12.72 25.0485C12.9299 25.0724 13.1366 25.0631 13.3274 24.9491C13.5309 24.8269 13.6323 24.5996 13.5869 24.3705C13.5492 24.1814 13.4214 24.0947 13.2656 24.0447C13.0885 23.988 12.9053 23.977 12.7443 23.9715ZM12.2357 22.1617C12.2451 22.2403 12.2489 22.3199 12.2649 22.3969C12.3062 22.5964 12.3857 22.7718 12.5678 22.8608C12.7817 22.9657 13.0551 22.9212 13.1491 22.5944C13.2136 22.3704 13.206 22.1481 13.1288 21.9294C13.0944 21.8319 13.0389 21.7494 12.9594 21.6888C12.7737 21.5474 12.4385 21.5282 12.3015 21.8399C12.257 21.9412 12.2395 22.049 12.2357 22.1617Z" fill="#ED1C24"/>
<path id="Vector_4" fill-rule="evenodd" clip-rule="evenodd" d="M9.61154 21.3416C9.6184 21.3764 9.63216 21.4158 9.63248 21.4554C9.63295 21.5307 9.6254 21.6061 9.62139 21.6814L9.62131 21.7468L9.67995 21.6981C9.84056 21.5546 10.0131 21.4324 10.2139 21.3667C10.5764 21.2484 10.938 21.4648 11.0556 21.8666C11.1002 22.0194 11.1178 22.1764 11.1193 22.336C11.1226 22.6906 11.1244 23.0452 11.1273 23.3998C11.1283 23.5271 11.1417 23.5498 11.2523 23.5868C11.3149 23.6078 11.3796 23.6225 11.4444 23.6335C11.48 23.6397 11.4953 23.6549 11.4934 23.6929L11.4937 23.7278C11.4922 23.8747 11.4829 23.8814 11.3521 23.8808C11.039 23.8797 10.7262 23.8813 10.4131 23.8837C10.3198 23.8844 10.3196 23.8874 10.3104 23.7871L10.3086 23.7294C10.3145 23.6429 10.3164 23.6437 10.3946 23.6312C10.4472 23.6228 10.4994 23.6096 10.5508 23.5951C10.6036 23.5804 10.629 23.5379 10.6362 23.4811C10.6397 23.4523 10.6444 23.4234 10.6443 23.3946C10.6403 23.0071 10.6465 22.6192 10.6276 22.2324C10.6123 21.9194 10.3931 21.7327 10.1045 21.7536C9.96288 21.7641 9.83484 21.8153 9.71794 21.9039C9.64082 21.9625 9.62524 22.0471 9.6255 22.1383C9.62656 22.5006 9.62929 22.8629 9.6324 23.2254C9.63305 23.3048 9.635 23.3842 9.64181 23.463C9.64898 23.5491 9.67674 23.5839 9.75433 23.6027C9.82856 23.6207 9.90429 23.6311 9.98356 23.6457L9.9902 23.7123C9.99262 23.8676 9.97768 23.8792 9.83907 23.8784C9.51538 23.8765 9.1917 23.8783 8.86819 23.8817C8.81726 23.8824 8.79564 23.8649 8.79701 23.8109L8.79629 23.7878C8.78807 23.6478 8.79181 23.6425 8.91347 23.62L8.97095 23.6075C9.1027 23.5754 9.13651 23.5372 9.13855 23.3916C9.14527 22.9305 9.14806 22.4695 9.15291 22.0083C9.15355 21.9421 9.13066 21.8907 9.07398 21.8632C8.99455 21.8249 8.91437 21.7884 8.83401 21.7524C8.78963 21.7324 8.7389 21.7197 8.7373 21.6529C8.73624 21.6058 8.78256 21.5642 8.84582 21.5503C8.9729 21.5225 9.1011 21.4993 9.2267 21.4652C9.35173 21.4314 9.47455 21.3861 9.61154 21.3416Z" fill="#ED1C24"/>
<path id="Vector_5" fill-rule="evenodd" clip-rule="evenodd" d="M16.6095 22.5576C16.603 22.9884 16.4998 23.3365 16.2196 23.5975C15.8647 23.9286 15.3116 24.0405 14.8599 23.7919C14.6671 23.6858 14.5255 23.5234 14.4334 23.3126C14.2922 22.9885 14.2572 22.6479 14.3315 22.2991C14.405 21.9542 14.5973 21.7045 14.8848 21.543C15.1805 21.3771 15.4918 21.3126 15.8198 21.4004C16.2348 21.5113 16.5327 21.8801 16.5914 22.3493C16.602 22.4315 16.606 22.5148 16.6095 22.5576ZM16.1284 22.7903L16.1124 22.7882C16.1124 22.7476 16.1145 22.707 16.1121 22.6664C16.0988 22.4133 16.0469 22.1722 15.9124 21.9602C15.7849 21.7594 15.611 21.6407 15.3845 21.6232C15.131 21.6033 14.9177 21.7573 14.8426 22.0391C14.7298 22.4622 14.7673 22.8747 14.9643 23.2626C15.0501 23.4317 15.1773 23.5566 15.348 23.6224C15.6823 23.751 15.9791 23.5855 16.0667 23.2128C16.099 23.0752 16.1085 22.9312 16.1284 22.7903Z" fill="#ED1C24"/>
<path id="Vector_6" fill-rule="evenodd" clip-rule="evenodd" d="M8.39221 22.5803C8.38493 22.8893 8.31761 23.175 8.14195 23.4231C7.95376 23.6888 7.69538 23.8306 7.40166 23.8901C7.05439 23.9603 6.72835 23.8956 6.44975 23.6416C6.31744 23.5208 6.22714 23.3661 6.16765 23.1902C6.07006 22.9017 6.04597 22.6061 6.10659 22.3051C6.17135 21.9829 6.3388 21.7368 6.59814 21.5718C6.89799 21.3816 7.2214 21.297 7.56662 21.3832C8.01051 21.4943 8.26646 21.8096 8.36066 22.2866C8.37957 22.3828 8.38207 22.4824 8.39221 22.5803ZM7.90578 22.7834L7.89291 22.7814L7.89298 22.7233C7.88605 22.4398 7.83544 22.1696 7.68032 21.9339C7.56542 21.7588 7.41146 21.649 7.21392 21.618C6.89198 21.5676 6.68129 21.7752 6.61117 22.0576C6.51968 22.4265 6.54779 22.7911 6.68822 23.1412C6.77583 23.3594 6.91442 23.5296 7.12757 23.6123C7.45986 23.7413 7.76118 23.5716 7.84577 23.2003C7.8769 23.0645 7.8864 22.9227 7.90578 22.7834Z" fill="#ED1C24"/>
<path id="Vector_7" fill-rule="evenodd" clip-rule="evenodd" d="M16.1613 6.83281C16.3893 7.55345 16.553 8.28903 16.6063 9.05105C16.6724 9.99668 16.6406 10.9357 16.4563 11.8653L16.4327 11.9396C16.3752 11.9397 16.3167 11.9317 16.2605 11.9412C15.786 12.0217 15.312 12.1051 14.8379 12.1881C14.3477 12.2739 13.8571 12.3563 13.3678 12.4478C13.1945 12.48 12.98 12.4409 12.9097 12.7016L12.8761 12.7139L12.9017 11.1547L12.8821 7.39248L13.1105 7.35016C13.4839 7.28428 13.8573 7.21719 14.2313 7.15295C14.6772 7.07662 15.1236 7.00212 15.5699 6.92762C15.767 6.895 15.9642 6.86462 16.1613 6.83281Z" fill="#ED1C24"/>
<path id="Vector_8" fill-rule="evenodd" clip-rule="evenodd" d="M12.3992 17.2618C12.1586 17.036 11.9096 16.8202 11.6791 16.5827C10.4385 15.3056 9.5316 13.8029 9.08622 11.9923C8.9635 11.4941 8.88203 10.9877 8.85616 10.4731C8.83793 10.1128 8.81169 9.74948 8.83563 9.39108C8.89891 8.43813 9.02672 7.49441 9.28454 6.57666L9.29874 6.55536C9.3237 6.59154 9.35948 6.62368 9.37212 6.66451C9.62189 7.46825 9.8696 8.27279 10.1162 9.07794C10.8909 11.6076 11.6647 14.1378 12.4408 16.667C12.456 16.7164 12.4953 16.7569 12.5236 16.8014L12.3992 17.2618Z" fill="#ED1C24"/>
<path id="Vector_9" fill-rule="evenodd" clip-rule="evenodd" d="M16.1611 6.83165C15.9638 6.86325 15.7666 6.89383 15.5697 6.92645C15.1234 7.00095 14.677 7.07545 14.2311 7.15178C13.8573 7.21583 13.4839 7.28292 13.1103 7.34899L12.8819 7.39131L12.8803 7.22925C12.8728 7.09602 12.8603 6.96279 12.8587 6.82957L12.8363 4.2801C12.8309 3.74823 12.8226 3.21636 12.8134 2.68469C12.8076 2.35427 12.8015 2.02365 12.7883 1.69363C12.781 1.51634 12.7549 1.33983 12.7447 1.16252C12.7386 1.06057 12.747 0.957826 12.7492 0.855478C12.8653 1.10116 12.979 1.34868 13.0983 1.59254C13.2868 1.97805 13.5877 2.26238 13.8588 2.57246C14.9293 3.79875 15.6886 5.223 16.1611 6.83165Z" fill="#ED1C24"/>
<path id="Vector_10" fill-rule="evenodd" clip-rule="evenodd" d="M12.8763 12.716L12.9099 12.7037C12.9802 12.4431 13.1947 12.4821 13.3681 12.4499C13.8573 12.3584 14.3479 12.276 14.8381 12.1902C15.3123 12.1074 15.7862 12.0241 16.2607 11.9433C16.3169 11.9338 16.3755 11.9418 16.4329 11.9417C16.3439 12.286 16.2737 12.6378 16.1608 12.9726C16.0326 13.3521 15.8776 13.7227 15.7132 14.086C15.4674 14.6289 15.1614 15.1353 14.806 15.5993C14.5321 15.9567 14.2268 16.2875 13.921 16.6138C13.7518 16.7941 13.5527 16.941 13.3671 17.1032L13.319 17.0674L13.1463 16.9063L12.9679 16.4788C12.8452 15.9786 12.7812 15.4696 12.771 14.9522L12.7745 14.8653L12.7994 14.4888C12.8076 14.3603 12.8185 14.2319 12.8237 14.1034C12.8422 13.6412 12.8588 13.1786 12.8763 12.716Z" fill="#ED1C24"/>
<path id="Vector_11" fill-rule="evenodd" clip-rule="evenodd" d="M12.876 12.714C12.8587 13.1766 12.8421 13.6394 12.8234 14.102C12.8182 14.2307 12.8075 14.3591 12.7991 14.4874L12.6901 14.5321C12.4489 13.7558 12.2075 12.9877 11.9714 12.2176C11.581 10.9436 11.1954 9.66771 10.8056 8.39325C10.491 7.36482 10.1736 6.337 9.85446 5.30999C9.83941 5.26204 9.79655 5.2242 9.76675 5.18172L10.4662 3.78615C10.4902 3.83147 10.5217 3.87396 10.5367 3.92272C10.8582 4.96294 11.1792 6.00336 11.4973 7.04479C11.9113 8.39991 12.3225 9.75563 12.7362 11.111C12.7527 11.165 12.7799 11.215 12.806 11.2757L12.9016 11.1549C12.893 11.6747 12.8845 12.1942 12.876 12.714Z" fill="#ED1C24"/>
<path id="Vector_12" fill-rule="evenodd" clip-rule="evenodd" d="M9.76694 5.18426C9.79693 5.22675 9.83979 5.26458 9.85466 5.31253C10.1737 6.33954 10.4912 7.36716 10.8058 8.39579C11.1956 9.67025 11.5812 10.9461 11.9716 12.2202C12.2076 12.9902 12.4491 13.7582 12.6903 14.5347L12.7993 14.49L12.7744 14.8664L12.7521 14.9531C12.7137 15.3651 12.6813 15.7779 12.6346 16.1891C12.6112 16.3952 12.5615 16.5974 12.5238 16.8012C12.4956 16.7567 12.4561 16.7162 12.4409 16.6668C11.6647 14.1376 10.8911 11.6074 10.1163 9.07776C9.86974 8.27261 9.62184 7.46807 9.37226 6.66433C9.35962 6.6235 9.32384 6.59136 9.29888 6.55518L9.76694 5.18426Z" fill="#ED1C24"/>
<path id="Vector_13" fill-rule="evenodd" clip-rule="evenodd" d="M12.9017 11.155L12.8061 11.2759C12.78 11.2151 12.7528 11.1651 12.7363 11.1111C12.3227 9.75578 11.9114 8.40006 11.4974 7.04494C11.1793 6.00351 10.8583 4.96309 10.5368 3.92287C10.5218 3.87411 10.4903 3.83162 10.4663 3.7863L11.3306 2.55201C11.3578 2.59145 11.3966 2.62664 11.4105 2.67113C11.6491 3.43504 11.8855 4.19956 12.1208 4.96469C12.3404 5.67943 12.5567 6.39498 12.779 7.1085C12.7939 7.15625 12.8459 7.19003 12.8805 7.2307L12.8822 7.39276L12.9017 11.155Z" fill="#ED1C24"/>
<path id="Vector_14" fill-rule="evenodd" clip-rule="evenodd" d="M12.8805 7.23102C12.8457 7.19056 12.7938 7.15677 12.779 7.10882C12.5569 6.3953 12.3404 5.67975 12.1208 4.96501C11.8855 4.19988 11.6491 3.43536 11.4105 2.67145C11.3965 2.62696 11.3578 2.59177 11.3306 2.55233C11.6115 2.2536 11.8837 1.94409 12.1761 1.65919C12.4359 1.40612 12.6448 1.1347 12.655 0.734043L12.6756 0.654263L12.7492 0.857039C12.7472 0.959388 12.7387 1.06213 12.7447 1.16409C12.7552 1.34139 12.7812 1.5179 12.7883 1.6952C12.8015 2.02522 12.8077 2.35584 12.8134 2.68625C12.8227 3.21792 12.831 3.74979 12.8363 4.28166L12.8588 6.83113C12.8605 6.96455 12.8732 7.09779 12.8805 7.23102Z" fill="#ED1C24"/>
<path id="Vector_15" fill-rule="evenodd" clip-rule="evenodd" d="M12.5239 16.7994C12.5617 16.5956 12.6114 16.3934 12.6347 16.1873C12.6815 15.7763 12.7139 15.3633 12.7523 14.9513L12.7618 14.9497L12.7711 14.9516C12.7813 15.469 12.8452 15.978 12.968 16.4782C12.9427 16.5143 12.9074 16.5461 12.894 16.5867C12.79 16.9046 12.6919 17.2251 12.5874 17.5428C12.5732 17.5862 12.5332 17.6201 12.5054 17.658L12.3993 17.2598L12.5239 16.7994Z" fill="#ED1C24"/>
<path id="Vector_16" fill-rule="evenodd" clip-rule="evenodd" d="M12.5054 17.6571C12.5333 17.6189 12.5732 17.5853 12.5875 17.5418C12.6919 17.2242 12.7901 16.9036 12.894 16.5858C12.9073 16.5452 12.9428 16.5133 12.968 16.4772L13.1464 16.9048C13.1111 16.9591 13.0621 17.0084 13.0425 17.0691L12.6986 18.1636C12.6844 18.2076 12.6364 18.2384 12.6039 18.2756L12.5054 17.6571Z" fill="#ED1C24"/>
<path id="Vector_17" fill-rule="evenodd" clip-rule="evenodd" d="M12.6038 18.2778C12.6361 18.2407 12.6843 18.2099 12.6985 18.1659L13.0424 17.0714C13.0619 17.0107 13.111 16.9614 13.1463 16.907L13.3192 17.0679C13.2356 17.1577 13.189 17.2617 13.2168 17.3931L13.164 17.5805C13.14 17.6125 13.1053 17.6405 13.0935 17.6772C12.9735 18.0499 12.859 18.4246 12.7381 18.7971C12.7227 18.8442 12.6803 18.8813 12.6506 18.9231L12.6038 18.2778Z" fill="#ED1C24"/>
<path id="Vector_18" fill-rule="evenodd" clip-rule="evenodd" d="M12.6503 18.9215C12.6802 18.8797 12.7226 18.8426 12.7378 18.7955C12.8587 18.423 12.9734 18.0483 13.0932 17.6756C13.105 17.6389 13.1397 17.6111 13.1637 17.5789L13.09 18.439C13.0706 18.4633 13.0426 18.4846 13.0332 18.5128L12.7909 19.2655C12.7739 19.3168 12.7414 19.3627 12.7159 19.4108C12.6934 19.3787 12.6531 19.3475 12.6513 19.3142C12.6444 19.1839 12.6496 19.0525 12.6503 18.9215Z" fill="#ED1C24"/>
<path id="Vector_19" fill-rule="evenodd" clip-rule="evenodd" d="M12.716 19.4098C12.7414 19.3617 12.7739 19.3159 12.791 19.2645L13.0333 18.5119C13.0427 18.4835 13.0709 18.4624 13.0901 18.438L13.0913 19.0026L12.917 19.4871L12.716 19.4098Z" fill="#ED1C24"/>
<path id="Vector_20" fill-rule="evenodd" clip-rule="evenodd" d="M12.9169 19.4891L13.0913 19.0042L13.1265 19.5783L12.9169 19.4891Z" fill="#ED1C24"/>
<path id="Vector_21" fill-rule="evenodd" clip-rule="evenodd" d="M13.2167 17.3917C13.189 17.2605 13.2354 17.1566 13.3191 17.0666L13.3672 17.1024L13.2167 17.3917Z" fill="#ED1C24"/>
<path id="Vector_22" fill-rule="evenodd" clip-rule="evenodd" d="M12.771 14.9517L12.7615 14.9498L12.7518 14.9515L12.7745 14.8633L12.771 14.9517Z" fill="#ED1C24"/>
<line id="Line 26" y1="-0.042727" x2="14.8246" y2="-0.042727" transform="matrix(-0.00120622 0.999999 -0.999999 -0.00142927 12.7427 0.828125)" stroke="#ED1C24" stroke-width="0.085454"/>
</g>
<defs>
<clipPath id="clip0_2002_2493">
<rect width="23.8799" height="25.9939" fill="white" transform="matrix(0.999999 0.0014293 -0.00120628 0.999999 0.803955 0)"/>
</clipPath>
</defs>
</svg>
