<svg width="24" height="21" viewBox="0 0 24 21" fill="none" xmlns="http://www.w3.org/2000/svg">
<g id="React-icon 1" clip-path="url(#clip0_2002_2439)">
<path id="Vector" d="M11.9081 12.8062C13.0434 12.8062 13.9637 11.8921 13.9637 10.7645C13.9637 9.6368 13.0434 8.72266 11.9081 8.72266C10.7728 8.72266 9.85242 9.6368 9.85242 10.7645C9.85242 11.8921 10.7728 12.8062 11.9081 12.8062Z" fill="#ED1C24"/>
<g id="Group">
<path id="Vector_2" d="M11.9077 14.9484C17.9996 14.9484 22.9381 13.0755 22.9381 10.7652C22.9381 8.45491 17.9996 6.58203 11.9077 6.58203C5.81588 6.58203 0.877441 8.45491 0.877441 10.7652C0.877441 13.0755 5.81588 14.9484 11.9077 14.9484Z" stroke="#ED1C24" stroke-width="1.03257"/>
<path id="Vector_3" d="M8.26005 12.8549C11.306 18.0951 15.4082 21.4066 17.4225 20.2515C19.4369 19.0963 18.6006 13.9119 15.5547 8.67174C12.5088 3.43158 8.40659 0.120033 6.39222 1.27519C4.37786 2.43034 5.21411 7.61477 8.26005 12.8549Z" stroke="#ED1C24" stroke-width="1.03257"/>
<path id="Vector_4" d="M8.2599 8.67215C5.21396 13.9123 4.37771 19.0967 6.39207 20.2519C8.40643 21.407 12.5086 18.0955 15.5546 12.8553C18.6005 7.61518 19.4367 2.43075 17.4224 1.27559C15.408 0.120437 11.3058 3.43199 8.2599 8.67215Z" stroke="#ED1C24" stroke-width="1.03257"/>
</g>
</g>
<defs>
<clipPath id="clip0_2002_2439">
<rect width="23.0634" height="20.3816" fill="white" transform="translate(0.376465 0.574219)"/>
</clipPath>
</defs>
</svg>
