<svg width="25" height="21" viewBox="0 0 25 21" fill="none" xmlns="http://www.w3.org/2000/svg">
<path id="Vector" d="M22.4105 0.0282841C22.6459 -0.0190073 22.8906 -0.00682656 23.1191 0.0635614C23.3477 0.133949 23.5519 0.259978 23.7104 0.428559C24.1755 0.897399 24.1462 1.69702 23.6546 2.13992C23.2278 2.549 22.4912 2.62497 21.9778 2.31504C21.7756 2.19635 21.6112 2.02969 21.5013 1.83222C21.3915 1.63476 21.3402 1.41362 21.3527 1.19158C21.3687 0.639352 21.8293 0.136229 22.411 0.0282841M22.4982 0.686606C22.3866 0.720732 22.2869 0.782265 22.2098 0.864706C22.1327 0.947147 22.0809 1.04744 22.0599 1.15498C21.9932 1.46816 22.2507 1.79663 22.5878 1.84527C23.0052 1.92681 23.4295 1.53117 23.3269 1.14247C23.2691 0.800574 22.8498 0.566153 22.4982 0.686606ZM7.23272 1.97128C8.52237 1.32935 9.97092 1.01443 11.4328 1.05819C12.8948 1.10194 14.3186 1.50281 15.5612 2.22053C17.3043 3.22955 18.6131 4.88161 19.0743 6.74725C19.5429 8.57118 19.1878 10.5559 18.124 12.1473C17.929 12.4426 17.7127 12.7254 17.4766 12.9937C18.6255 12.9473 19.7327 12.2464 20.1221 11.2276C20.2297 10.8811 20.5514 10.5943 20.9414 10.5452C21.173 10.5093 21.4108 10.5495 21.6142 10.6588C21.8175 10.768 21.9737 10.9397 22.0559 11.1442C22.3884 12.0689 22.4115 13.0656 22.1222 14.0027C21.7951 15.0373 21.1136 15.9443 20.1814 16.5855C20.3368 16.9492 20.1844 17.3351 19.9697 17.6459C19.4053 18.5639 18.5418 19.2912 17.504 19.7228C15.9038 20.4052 13.9536 20.3163 12.4371 19.4842C11.9157 19.2043 11.4492 18.844 11.0576 18.4187C10.4399 19.0714 9.65271 19.5658 8.77112 19.8549C7.67769 20.2109 6.49256 20.2433 5.37857 19.9475C3.90341 19.5593 2.61751 18.5655 1.97655 17.266C1.85105 17.0098 1.88043 16.7101 2.00544 16.4595C1.11415 15.8051 0.471817 14.9021 0.172704 13.8832C-0.0599087 13.063 -0.0575048 12.2005 0.179677 11.3814C0.212859 11.2433 0.26421 11.1095 0.33257 10.983C0.425264 10.8298 0.562399 10.704 0.728312 10.6199C0.894225 10.5357 1.08223 10.4967 1.27085 10.5072C1.69467 10.5137 2.07367 10.8093 2.19319 11.1818C2.57667 12.201 3.67532 12.9117 4.82576 12.9626C3.8674 11.883 3.26922 10.5664 3.10482 9.17467C2.94042 7.78295 3.21696 6.37689 3.90043 5.12947C4.64296 3.78828 5.80471 2.68772 7.23272 1.97267M10.324 2.04634C8.82373 2.20599 7.41563 2.80103 6.29941 3.74704C5.20376 4.67731 4.43182 5.94392 4.17982 7.30782C3.9471 8.54162 4.1207 9.81204 4.67784 10.9524C5.16591 11.9605 5.95578 12.8287 6.90551 13.488C5.72619 14.062 4.24257 14.0597 3.07071 13.4676C2.20737 13.0404 1.54601 12.3293 1.21557 11.4732C1.00478 12.0869 0.963334 12.7401 1.09505 13.3726C1.29974 14.383 1.9651 15.2943 2.873 15.8743C3.66924 16.3816 4.61895 16.6388 5.58346 16.6084C6.54797 16.5779 7.47677 16.2615 8.23424 15.7052C7.63213 16.572 6.61118 17.165 5.51552 17.317C4.63352 17.4523 3.71566 17.2966 2.92579 16.9167C3.53587 18.062 4.74358 18.9088 6.09821 19.1289C7.26628 19.3322 8.47337 19.0977 9.4564 18.4766C10.1918 18.0138 10.7547 17.3501 11.0675 16.5771C11.5879 17.9332 12.954 18.9468 14.4755 19.1715C15.6029 19.3474 16.7601 19.1186 17.7132 18.5313C18.3576 18.144 18.8661 17.5815 19.2162 16.9501C18.1703 17.4541 16.8939 17.5412 15.7923 17.1405C14.9038 16.8259 14.1334 16.2056 13.7051 15.4125C14.4795 16.1309 15.5079 16.5634 16.5992 16.6297C17.6906 16.696 18.7708 16.3916 19.639 15.7729C20.3426 15.2708 20.861 14.5775 21.1221 13.7891C21.3646 13.0449 21.3598 12.25 21.1082 11.5084C20.9563 11.8526 20.7815 12.1913 20.531 12.4836C20.2078 12.8754 19.8041 13.2036 19.3434 13.4489C18.8826 13.6943 18.374 13.852 17.8471 13.9128C17.0046 14.0145 16.1488 13.8732 15.3954 13.5079C16.5169 12.7541 17.4014 11.6895 17.8656 10.4743C18.5867 8.64485 18.2939 6.50634 17.1066 4.90154C16.2849 3.77246 15.1058 2.90929 13.7329 2.43179C12.646 2.05337 11.4779 1.92078 10.325 2.04495M20.5693 2.61432C20.9015 2.43966 21.3602 2.69493 21.3433 3.05027C21.3657 3.40653 20.9055 3.67014 20.5733 3.48992C20.1973 3.33194 20.1973 2.776 20.5693 2.61432ZM6.74266 7.16235C7.27991 6.89915 7.90014 6.82184 8.49293 6.94417C9.08572 7.0665 9.61262 7.38055 9.97982 7.8304C10.2578 8.17222 10.4335 8.5765 10.4888 9.00204C10.937 9.00204 11.3853 9.00204 11.8305 9.00204C11.8755 8.65318 12.0019 8.31769 12.201 8.0191C12.4001 7.72051 12.6669 7.46604 12.9829 7.27353C13.2707 7.0987 13.5934 6.97964 13.9318 6.92349C14.2702 6.86734 14.6173 6.87525 14.9523 6.94674C15.2873 7.01823 15.6034 7.15183 15.8817 7.33957C16.1599 7.5273 16.3946 7.7653 16.5717 8.03934C16.9049 8.53644 17.0025 9.15121 16.8924 9.7229C16.8243 10.0461 16.685 10.3527 16.4833 10.6234C16.2816 10.8941 16.0219 11.1231 15.7204 11.2959C15.419 11.4688 15.0824 11.5817 14.7318 11.6277C14.3812 11.6737 14.0242 11.6517 13.6831 11.5631C12.7274 11.3263 11.9739 10.5272 11.8449 9.61727H10.4783C10.4149 10.0205 10.2414 10.4018 9.97444 10.7249C9.70747 11.048 9.35593 11.302 8.95339 11.4628C8.55084 11.6235 8.11072 11.6855 7.67505 11.643C7.23938 11.6005 6.8227 11.4548 6.46479 11.2198C6.10688 10.9848 5.81969 10.6685 5.63064 10.3009C5.44159 9.93326 5.35698 9.52672 5.3849 9.12005C5.41282 8.71338 5.55233 8.32015 5.79012 7.97791C6.0279 7.63566 6.35602 7.35583 6.74316 7.16513M7.62117 7.4431C7.31365 7.49164 7.02251 7.60618 6.77086 7.77763C6.51921 7.94908 6.31397 8.17272 6.17142 8.43081C6.04289 8.66152 5.96875 8.91509 5.95398 9.17458C5.93921 9.43407 5.98414 9.6935 6.08576 9.93555C6.38458 10.6805 7.24118 11.1924 8.0943 11.1178C8.37269 11.0972 8.64332 11.0224 8.88861 10.8982C9.13391 10.774 9.3484 10.6033 9.51815 10.397C9.72069 10.1545 9.85444 9.86863 9.90709 9.56553C9.95974 9.26243 9.92961 8.95188 9.81946 8.66245C9.52861 7.83364 8.54352 7.28651 7.62117 7.4431ZM14.099 7.43893C13.8344 7.47461 13.5801 7.55949 13.3515 7.68851C13.1229 7.81754 12.9245 7.98805 12.7683 8.1899C12.5902 8.416 12.4707 8.67725 12.4188 8.95333C12.367 9.22941 12.3843 9.51289 12.4695 9.78174C12.705 10.5846 13.5771 11.1716 14.472 11.1225C14.7716 11.1084 15.0639 11.0318 15.3273 10.8982C15.5907 10.7647 15.8184 10.5777 15.9935 10.3511C16.1751 10.119 16.2957 9.85054 16.3454 9.56722C16.3952 9.2839 16.3727 8.99367 16.2798 8.7199C16.0139 7.87626 15.0348 7.29438 14.1005 7.43893H14.099Z" fill="#ED1C24"/>
</svg>
