<svg width="42" height="42" viewBox="0 0 42 42" fill="none" xmlns="http://www.w3.org/2000/svg">
<g id="Vector" clip-path="url(#clip0_2002_2380)">
<path id="Vector_2" d="M26.4632 35.5355H15.5367C14.216 35.5355 13.1414 36.6102 13.1414 37.9309V40.523C13.1414 41.3434 13.814 42.0078 14.6261 42.0078H27.3574C28.1777 42.0078 28.8421 41.3434 28.8421 40.523V37.9309C28.8503 36.602 27.7757 35.5355 26.4632 35.5355ZM19.7941 23.4523C19.7941 24.1168 20.3355 24.6582 20.9999 24.6582C21.6644 24.6582 22.2058 24.1168 22.2058 23.4523C22.2058 22.7961 21.6726 22.2383 20.9917 22.2383C20.3273 22.2465 19.7941 22.7879 19.7941 23.4523Z" fill="#101942"/>
<path id="Vector_3" d="M11.2988 24.9594L20.376 10.923V21.2718C19.3172 21.5746 18.5745 22.6331 18.7622 23.8279L18.7624 23.8289C18.9325 24.8766 19.8454 25.7268 21.0082 25.7268C22.2601 25.7268 23.281 24.7161 23.281 23.4622C23.281 22.415 22.5768 21.5475 21.6322 21.2727V10.9233L30.7012 24.9594L30.7017 24.9602C31.3272 25.9174 31.0945 27.2174 30.172 27.9131L30.2859 28.0641L30.172 27.9131C27.7513 29.7387 26.2405 31.8935 25.5928 34.4702H16.4071C15.7594 31.8936 14.2487 29.7389 11.8283 27.9133C10.9136 27.2177 10.6805 25.917 11.2987 24.9595C11.2987 24.9594 11.2987 24.9594 11.2988 24.9594Z" fill="#101942" stroke="#101942" stroke-width="0.378454"/>
<path id="Vector_4" d="M39.0633 18.3012C37.8984 11.4926 32.9766 5.95547 26.5125 3.91289C29.7773 3.92109 32.9848 3.9293 35.823 3.9293C36.0527 5.42227 37.3406 6.5625 38.891 6.5625C40.6055 6.5625 42 5.16797 42 3.45351C42 1.73906 40.6055 0.344531 38.891 0.344531C37.316 0.344531 36.0117 1.52578 35.8148 3.05156C33.1242 3.04336 28.9652 3.03516 24.5027 3.02695V1.78828C24.5027 0.803906 23.707 0 22.7227 0H19.2773C18.293 0 17.4891 0.803906 17.4891 1.78828V3.02695C11.7551 3.01875 8.28516 3.01875 6.16875 3.02695C5.96367 1.51758 4.66758 0.352734 3.10898 0.352734C1.39453 0.352734 0 1.74727 0 3.45351C0 5.16797 1.39453 6.5625 3.10898 6.5625C4.66758 6.5625 5.96367 5.40586 6.17695 3.90469C8.42461 3.89648 11.7469 3.89648 15.5285 3.89648C9.04805 5.93086 4.10156 11.4762 2.93672 18.3012C1.29609 18.3914 0 19.7449 0 21.4019C0 23.1164 1.39453 24.5109 3.10898 24.5109C4.82344 24.5109 6.21797 23.1164 6.21797 21.4019C6.21797 19.9336 5.19258 18.7031 3.81445 18.3832C5.05312 11.3367 10.5164 5.72578 17.4973 4.29844V5.22539C17.4973 6.20976 18.3012 7.01367 19.2855 7.01367H22.7227C23.707 7.01367 24.5109 6.20976 24.5109 5.22539V4.29023C31.4918 5.71758 36.9633 11.3285 38.1937 18.375C36.8238 18.6949 35.7902 19.9254 35.7902 21.3937C35.7902 23.1082 37.1848 24.5027 38.8992 24.5027C40.6137 24.5027 42.0082 23.1082 42.0082 21.3937C42 19.7449 40.7039 18.3914 39.0633 18.3012Z" fill="#101942"/>
</g>
<defs>
<clipPath id="clip0_2002_2380">
<rect width="42" height="42" fill="white"/>
</clipPath>
</defs>
</svg>
