<svg width="19" height="17" viewBox="0 0 19 17" fill="none" xmlns="http://www.w3.org/2000/svg">
<g id="&#240;&#159;&#166;&#134; icon &#34;linkedin&#34;">
<path id="Vector" d="M18.404 10.6235V16.9431H14.4593V11.0466C14.4593 9.56501 13.8885 8.55442 12.4611 8.55442C11.3712 8.55442 10.722 9.23614 10.4371 9.89473C10.3329 10.1302 10.3062 10.4583 10.3062 10.788V16.9431H6.35965C6.35965 16.9431 6.41313 6.95719 6.35965 5.92178H10.3062V7.48389L10.2804 7.51986H10.3062V7.48389C10.8299 6.73452 11.7659 5.66314 13.8618 5.66314C16.4574 5.66314 18.404 7.23896 18.404 10.6235ZM2.23238 0.609375C0.883361 0.609375 0 1.43154 0 2.51321C0 3.57089 0.857543 4.41789 2.18074 4.41789H2.20656C3.58324 4.41789 4.43801 3.57089 4.43801 2.51321C4.41404 1.43154 3.58416 0.609375 2.2333 0.609375H2.23238ZM0.234211 16.9431H4.17891V5.92178H0.234211V16.9431Z" fill="#909090"/>
</g>
</svg>
