<svg width="20" height="20" viewBox="0 0 20 20" fill="none" xmlns="http://www.w3.org/2000/svg">
<g id="adobe xd" clip-path="url(#clip0_2002_2384)">
<path id="Vector" d="M15.8018 19.0475H3.40453C1.52489 19.0475 0.00537109 17.515 0.00537109 15.6193V3.60008C0.00537109 1.70439 1.52489 0.171875 3.40453 0.171875H15.8018C17.6814 0.171875 19.201 1.70439 19.201 3.60008V15.6193C19.201 17.515 17.6814 19.0475 15.8018 19.0475Z" fill="#ED1C24"/>
<path id="Vector_2" d="M15.4979 18.2423H3.70868C2.10931 18.2423 0.805542 16.9274 0.805542 15.3144V3.90842C0.805542 2.29538 2.10931 0.980469 3.70868 0.980469H15.4902C17.098 0.980469 18.3933 2.29538 18.3933 3.90842V15.3066C18.401 16.9274 17.0972 18.2423 15.4979 18.2423Z" fill="#ED1C24"/>
<path id="Vector_3" d="M7.59545 9.00381L9.83519 13.3435C9.87512 13.4077 9.85132 13.4728 9.78682 13.4728H8.39476C8.30646 13.4728 8.26653 13.4488 8.2266 13.3682C7.71447 12.3035 7.19465 11.2387 6.65871 10.0934H6.64258C6.16269 11.1744 5.63443 12.312 5.12306 13.3768C5.08313 13.441 5.04321 13.4658 4.97871 13.4658H3.66035C3.5805 13.4658 3.57206 13.4015 3.61275 13.3528L5.80412 9.14165L3.68493 4.88252C3.63655 4.81825 3.68493 4.76946 3.73253 4.76946H5.10847C5.18832 4.76946 5.22057 4.78572 5.25205 4.85852C5.75575 5.9233 6.26788 7.0206 6.74777 8.09313H6.7639C7.22767 7.02835 7.7398 5.9233 8.23582 4.86626C8.27574 4.80199 8.29955 4.76172 8.38017 4.76172H9.66781C9.73154 4.76172 9.75611 4.81051 9.71618 4.87478L7.59545 9.00381ZM10.2276 10.3187C10.2276 8.43928 11.4676 6.97104 13.4348 6.97104C13.6029 6.97104 13.6904 6.97104 13.8509 6.98731V4.85C13.8509 4.80121 13.8908 4.76946 13.9308 4.76946H15.1946C15.2583 4.76946 15.2745 4.79347 15.2745 4.83374V12.2392C15.2745 12.4568 15.2745 12.7309 15.3144 13.0298C15.3144 13.0786 15.2983 13.0941 15.2507 13.1189C14.5788 13.4418 13.8747 13.5866 13.2029 13.5866C11.4668 13.5936 10.2268 12.5133 10.2276 10.3187ZM13.8501 8.2542C13.738 8.20542 13.5783 8.17367 13.3864 8.17367C12.3782 8.17367 11.6749 8.9558 11.6749 10.2552C11.6749 11.7397 12.3951 12.3368 13.2988 12.3368C13.4908 12.3368 13.6989 12.3128 13.8509 12.2477V8.2542H13.8501Z" fill="white"/>
</g>
<defs>
<clipPath id="clip0_2002_2384">
<rect width="19.1956" height="18.8757" fill="white" transform="translate(0.00537109 0.171875)"/>
</clipPath>
</defs>
</svg>
