<svg width="47" height="50" viewBox="0 0 47 50" fill="none" xmlns="http://www.w3.org/2000/svg">
<g id="Checkmark" clip-path="url(#clip0_2002_2550)">
<g id="Layer 1">
<path id="Vector" d="M27.9063 -3.74609H14.6875C13.8763 -3.74609 13.2188 -3.04654 13.2188 -2.18359V0.941406C13.2188 1.80435 13.8763 2.50391 14.6875 2.50391H27.9063C28.7174 2.50391 29.375 1.80435 29.375 0.941406V-2.18359C29.375 -3.04654 28.7174 -3.74609 27.9063 -3.74609Z" fill="#101942"/>
<path id="Vector_2" d="M35.2499 9.53516C33.9962 9.53512 32.7547 9.79779 31.5964 10.3082C30.4381 10.8186 29.3857 11.5667 28.4991 12.5098C27.6126 13.4529 26.9094 14.5725 26.4296 15.8047C25.9499 17.037 25.703 18.3577 25.703 19.6914C26.2161 33.1695 44.301 33.1499 44.7968 19.6913C44.794 16.9986 43.7873 14.417 41.9975 12.513C40.2077 10.609 37.781 9.53804 35.2499 9.53516ZM39.59 18.8398L35.1838 23.5273C35.0484 23.6731 34.8872 23.7888 34.7094 23.8678C34.5317 23.9468 34.341 23.9875 34.1483 23.9875C33.9557 23.9875 33.765 23.9468 33.5873 23.8678C33.4095 23.7888 33.2483 23.6731 33.1129 23.5273L30.9098 21.1836C30.641 20.8902 30.4918 20.4959 30.4943 20.0863C30.4968 19.6766 30.6509 19.2845 30.9232 18.9948C31.1955 18.7051 31.5641 18.5412 31.9492 18.5385C32.3342 18.5358 32.7048 18.6946 32.9807 18.9805L34.1483 20.2148L37.5191 16.6367C37.7947 16.3498 38.1656 16.1902 38.5513 16.1924C38.9369 16.1946 39.3061 16.3586 39.5788 16.6487C39.8515 16.9388 40.0056 17.3316 40.0077 17.7418C40.0098 18.152 39.8597 18.5466 39.59 18.8398Z" fill="#101942"/>
<path id="Vector_3" d="M3.672 41.5664H38.922C39.3112 41.5652 39.6841 41.4002 39.9593 41.1074C40.2345 40.8147 40.3896 40.4179 40.3908 40.0039V29.1491C33.7449 33.4172 24.8619 27.9814 24.969 19.6913C24.823 11.4341 33.7746 5.95101 40.3908 10.2301V0.941406C40.3896 0.527378 40.2345 0.130652 39.9593 -0.162112C39.6841 -0.454875 39.3112 -0.619884 38.922 -0.621094H30.1095V0.941406C30.1089 1.5628 29.8765 2.15855 29.4635 2.59794C29.0505 3.03733 28.4905 3.28448 27.9064 3.28516H14.6876C14.1035 3.28448 13.5435 3.03733 13.1305 2.59794C12.7175 2.15855 12.4851 1.5628 12.4845 0.941406V-0.621094H3.672C3.28281 -0.619884 2.90989 -0.454875 2.63469 -0.162112C2.35949 0.130652 2.20438 0.527378 2.20325 0.941406V40.0039C2.20439 40.4179 2.3595 40.8147 2.6347 41.1074C2.9099 41.4002 3.28281 41.5652 3.672 41.5664ZM6.6095 11.8789C6.61063 11.4649 6.76574 11.0682 7.04094 10.7754C7.31614 10.4826 7.68906 10.3176 8.07825 10.3164H19.8282C20.2174 10.3176 20.5904 10.4826 20.8656 10.7754C21.1408 11.0682 21.2959 11.4649 21.297 11.8789V12.6602C21.2959 13.0742 21.1407 13.4709 20.8655 13.7637C20.5904 14.0564 20.2174 14.2214 19.8282 14.2227H8.07825C7.68906 14.2214 7.31615 14.0564 7.04095 13.7637C6.76575 13.4709 6.61064 13.0742 6.6095 12.6602V11.8789ZM6.6095 19.6914C6.61063 19.2774 6.76574 18.8807 7.04094 18.5879C7.31614 18.2951 7.68906 18.1301 8.07825 18.1289H19.8282C20.2174 18.1301 20.5904 18.2951 20.8656 18.5879C21.1408 18.8807 21.2959 19.2774 21.297 19.6914V20.4727C21.2959 20.8867 21.1407 21.2834 20.8655 21.5762C20.5904 21.8689 20.2174 22.0339 19.8282 22.0352H8.07825C7.68906 22.0339 7.31615 21.8689 7.04095 21.5762C6.76575 21.2834 6.61064 20.8867 6.6095 20.4727V19.6914ZM6.6095 27.5039C6.61063 27.0899 6.76574 26.6932 7.04094 26.4004C7.31614 26.1076 7.68906 25.9426 8.07825 25.9414H19.8282C20.2174 25.9426 20.5904 26.1076 20.8656 26.4004C21.1408 26.6932 21.2959 27.0899 21.297 27.5039V28.2852C21.2959 28.6992 21.1407 29.0959 20.8655 29.3887C20.5904 29.6814 20.2174 29.8464 19.8282 29.8477H8.07825C7.68906 29.8464 7.31615 29.6814 7.04095 29.3887C6.76575 29.0959 6.61064 28.6992 6.6095 28.2852V27.5039Z" fill="#101942"/>
</g>
</g>
<defs>
<clipPath id="clip0_2002_2550">
<rect width="47" height="50" fill="white"/>
</clipPath>
</defs>
</svg>
