<svg width="19" height="19" viewBox="0 0 19 19" fill="none" xmlns="http://www.w3.org/2000/svg">
<g id="Figma" clip-path="url(#clip0_2002_2388)">
<path id="Vector" d="M6.93166 18.5188C8.57992 18.5188 9.91764 17.1811 9.91764 15.5329V12.5469H6.93166C5.2834 12.5469 3.94568 13.8846 3.94568 15.5329C3.94568 17.1811 5.2834 18.5188 6.93166 18.5188Z" fill="#ED1C24"/>
<path id="Vector_2" d="M3.94568 9.5602C3.94568 7.91194 5.2834 6.57422 6.93166 6.57422H9.91764V12.5462H6.93166C5.2834 12.5462 3.94568 11.2085 3.94568 9.5602Z" fill="#ED1C24"/>
<path id="Vector_3" d="M3.94568 3.58754C3.94568 1.93928 5.2834 0.601562 6.93166 0.601562H9.91764V6.57353H6.93166C5.2834 6.57353 3.94568 5.23581 3.94568 3.58754Z" fill="#ED1C24"/>
<path id="Vector_4" d="M9.91748 0.601562H12.9035C14.5517 0.601562 15.8894 1.93928 15.8894 3.58754C15.8894 5.23581 14.5517 6.57353 12.9035 6.57353H9.91748V0.601562Z" fill="#ED1C24"/>
<path id="Vector_5" d="M15.8894 9.5602C15.8894 11.2085 14.5517 12.5462 12.9035 12.5462C11.2552 12.5462 9.91748 11.2085 9.91748 9.5602C9.91748 7.91194 11.2552 6.57422 12.9035 6.57422C14.5517 6.57422 15.8894 7.91194 15.8894 9.5602Z" fill="#ED1C24"/>
</g>
<defs>
<clipPath id="clip0_2002_2388">
<rect width="17.9159" height="17.9159" fill="white" transform="translate(0.959595 0.601562)"/>
</clipPath>
</defs>
</svg>
