<svg width="38" height="13" viewBox="0 0 38 13" fill="none" xmlns="http://www.w3.org/2000/svg">
<g id="Finished-Layout">
<g id="logo_gray__500x500">
<g id="Logo-Wrike">
<g id="Page-1">
<path id="Fill-1" fill-rule="evenodd" clip-rule="evenodd" d="M7.24023 2.81641L5.09179 9.24978L3.13396 2.84356H0.95813L4.15341 12.3985H5.88036L8.0016 6.06034L10.082 12.3985H11.809L15.0179 2.84356H12.8832L10.925 9.24978L8.76314 2.81641H7.24023Z" fill="#ED1C24"/>
<g id="Group-15">
<path id="Fill-2" fill-rule="evenodd" clip-rule="evenodd" d="M15.1423 12.3993V5.6267H17.0592V7.12004C17.6518 5.37105 19.6429 5.63081 19.6429 5.63081V7.5036C19.6429 7.5036 17.0592 7.31209 17.0592 9.40873V12.3993H15.1423Z" fill="#ED1C24"/>
<path id="Fill-4" fill-rule="evenodd" clip-rule="evenodd" d="M20.5399 12.3984V8.22743L22.4568 6.40234V12.3984H20.5399Z" fill="#ED1C24"/>
<path id="Fill-6" fill-rule="evenodd" clip-rule="evenodd" d="M24.0652 12.3968V4.91812L25.982 3.00781V8.09434L28.3209 5.62414H30.6732L27.7226 8.67799L31.1357 12.3968H28.6608L25.982 9.47888V12.3968H24.0652Z" fill="#ED1C24"/>
<g id="Group-10">
<mask id="mask0_2002_2575" style="mask-type:alpha" maskUnits="userSpaceOnUse" x="30" y="5" width="8" height="8">
<g id="mask-2">
<path id="Vector" d="M34.0723 12.4827H37.4141V5.44922H30.7305V12.4827H34.0723Z" fill="white"/>
</g>
</mask>
<g mask="url(#mask0_2002_2575)">
<path id="Fill-8" fill-rule="evenodd" clip-rule="evenodd" d="M35.5484 8.276C35.5083 7.53907 34.9848 6.9363 34.1391 6.9363C33.2805 6.9363 32.7032 7.48565 32.6092 8.276H35.5484ZM31.804 11.518C31.0925 10.875 30.7305 10.0177 30.7305 8.95916C30.7305 7.96801 31.0524 7.13728 31.6964 6.46735C32.3407 5.78419 33.1866 5.44922 34.2198 5.44922C35.1995 5.44922 35.9645 5.79759 36.5417 6.48092C37.1187 7.16408 37.4142 7.99463 37.4142 8.98613V9.48171H32.6092C32.8104 10.3926 33.6695 10.875 34.8505 10.875C35.6022 10.875 36.3135 10.6738 36.9981 10.2856V11.7993C36.3942 12.2549 35.5484 12.4827 34.448 12.4827C33.401 12.4827 32.5152 12.1611 31.804 11.518Z" fill="#ED1C24"/>
</g>
</g>
<path id="Fill-11" fill-rule="evenodd" clip-rule="evenodd" d="M24.4377 0.574219L20.1498 4.85432L21.4241 6.12631L26.9862 0.574219H24.4377Z" fill="#ED1C24"/>
<path id="Fill-13" fill-rule="evenodd" clip-rule="evenodd" d="M20.6581 2.81641H18.1099L21.4238 6.12447L22.6979 4.85248L20.6581 2.81641Z" fill="#ED1C24"/>
</g>
</g>
</g>
</g>
</g>
</svg>
