<svg width="20" height="19" viewBox="0 0 20 19" fill="none" xmlns="http://www.w3.org/2000/svg">
<g id="Group">
<path id="Vector" d="M10.2246 18.5012C15.5933 18.5012 19.9456 14.3595 19.9456 9.25058C19.9456 4.14162 15.5933 0 10.2246 0C4.85588 0 0.503662 4.14162 0.503662 9.25058C0.503662 14.3595 4.85588 18.5012 10.2246 18.5012Z" fill="#ED1C24"/>
<path id="Vector_2" fill-rule="evenodd" clip-rule="evenodd" d="M3.23364 14.7277L4.299 4.86845H6.76242C7.8277 4.99021 8.36038 5.96386 8.36038 7.66806C8.36038 10.5893 7.09536 12.2934 5.96341 12.1716H4.76507L4.49873 14.7277H3.23364ZM5.03133 10.3459L5.36428 6.69427H6.22982C6.69589 6.69427 7.02876 7.05941 7.02876 7.78968C6.96223 9.85902 6.42956 10.2242 5.83035 10.3459H5.03141H5.03133ZM8.11287 12.1716L9.17815 2.3125H10.4432L10.1769 4.86845H11.3753C12.4407 4.99021 12.8401 5.96386 12.707 7.18117L12.2409 12.1716H10.9093L11.3754 7.66806C11.4419 7.05941 11.4419 6.69427 10.9759 6.69427H9.97717L9.37796 12.1716H8.11287ZM12.1557 14.7277L13.2209 4.86845H15.6844C16.7498 4.99021 17.2825 5.96386 17.2825 7.66806C17.2825 10.5893 16.0174 12.2934 14.8855 12.1716H13.687L13.4207 14.7277H12.1557ZM13.9533 10.3459L14.2862 6.69427H15.1518C15.6179 6.69427 15.9508 7.05941 15.9508 7.78968C15.8842 9.85902 15.3516 10.2242 14.7524 10.3459H13.9533H13.9533Z" fill="white"/>
</g>
</svg>
