<svg width="18" height="24" viewBox="0 0 18 24" fill="none" xmlns="http://www.w3.org/2000/svg">
<g id="Group 98">
<path id="Vector" d="M5.63952 18.0915C5.63952 18.0915 4.75184 18.6088 6.27209 18.7834C8.11413 18.9941 9.05544 18.9639 11.0848 18.5797C11.0848 18.5797 11.6194 18.9145 12.3647 19.2047C7.81377 21.1574 2.06551 19.0915 5.63952 18.0915ZM5.08312 15.543C5.08312 15.543 4.08724 16.2813 5.6088 16.4391C7.57653 16.6426 9.13011 16.6592 11.8198 16.1407C11.8198 16.1407 12.1909 16.5184 12.7754 16.7246C7.2743 18.336 1.1471 16.8515 5.08312 15.543Z" fill="#ED1C24"/>
<path id="Vector_2" d="M9.74349 11.1394C10.8492 12.449 9.45353 13.6264 9.45353 13.6264C9.45353 13.6264 12.2594 12.1363 10.9711 10.2694C9.76735 8.52928 8.84461 7.66497 13.8404 4.68359C13.8404 4.68378 5.99839 6.6985 9.74349 11.1394Z" fill="#ED1C24"/>
<path id="Vector_3" d="M15.7746 19.8645C15.7746 19.8645 16.4361 20.4074 15.0458 20.827C12.4024 21.6241 4.04128 21.8644 1.71912 20.8589C0.884777 20.4973 2.45 19.996 2.94243 19.8902C3.45586 19.7796 3.74904 19.7997 3.74904 19.7997C2.82059 19.1492 -2.25185 21.0778 1.17289 21.631C10.5119 23.1377 18.1967 20.9524 15.7746 19.8645ZM5.98759 12.7868C5.98759 12.7868 1.73506 13.7922 4.48179 14.1577C5.64174 14.3122 7.95302 14.2768 10.1074 14.0969C11.8676 13.9497 13.6339 13.6353 13.6339 13.6353C13.6339 13.6353 13.0138 13.9001 12.5647 14.2049C8.24544 15.3358 -0.0965319 14.8091 2.30529 13.6531C4.33576 12.6756 5.98759 12.7868 5.98759 12.7868ZM13.6163 17.0308C18.0066 14.7607 15.9765 12.5791 14.5596 12.873C14.2132 12.9448 14.0578 13.0073 14.0578 13.0073C14.0578 13.0073 14.1867 12.806 14.4327 12.7194C17.2356 11.739 19.3909 15.6119 13.5286 17.1459C13.5286 17.1455 13.5959 17.0849 13.6163 17.0308Z" fill="#ED1C24"/>
<path id="Vector_4" d="M10.8817 0C10.8817 0 13.2841 2.4207 8.60253 6.14184C4.84818 9.12779 7.74647 10.8299 8.60124 12.7754C6.4095 10.7844 4.80186 9.03135 5.88023 7.39995C7.46378 5.00574 11.8508 3.84446 10.8817 0Z" fill="#ED1C24"/>
<path id="Vector_5" d="M6.48046 23.1369C10.666 23.3956 17.0951 22.9929 17.2472 21.0781C17.2472 21.0781 16.9546 21.804 13.7878 22.3799C10.2149 23.0301 5.80745 22.9543 3.19421 22.5372C3.19421 22.5374 3.7296 22.9659 6.48046 23.1369Z" fill="#ED1C24"/>
</g>
</svg>
