<svg width="31" height="33" viewBox="0 0 31 33" fill="none" xmlns="http://www.w3.org/2000/svg">
<g id="Node Js">
<path id="Vector" d="M27.3293 20.7704C27.2607 20.7704 27.1927 20.7509 27.1326 20.7128L26.5064 20.3095C26.4128 20.2526 26.4584 20.2323 26.4894 20.2207C26.6142 20.1734 26.6395 20.1623 26.7725 20.0805C26.7864 20.072 26.8046 20.0751 26.8191 20.0844L27.3 20.3954C27.3174 20.4059 27.3423 20.4059 27.3581 20.3954L29.2337 19.217C29.2514 19.2062 29.2625 19.1843 29.2625 19.1617V16.8054C29.2625 16.7823 29.2514 16.7609 29.2335 16.7491L27.3586 15.5718C27.3411 15.561 27.3182 15.561 27.3007 15.5718L25.426 16.7494C25.408 16.7609 25.3965 16.7831 25.3965 16.8054V19.1617C25.3965 19.1843 25.408 19.2057 25.426 19.2162L25.9397 19.5396C26.2186 19.6911 26.3894 19.5126 26.3894 19.333V17.0063C26.3894 16.9737 26.4138 16.9477 26.4438 16.9477H26.6818C26.7113 16.9477 26.7359 16.9737 26.7359 17.0063V19.333C26.7359 19.7379 26.5334 19.9702 26.1805 19.9702C26.0721 19.9702 25.9868 19.9702 25.7486 19.8426L25.2568 19.5344C25.1351 19.4578 25.0602 19.3148 25.0602 19.162V16.8057C25.0602 16.6526 25.1351 16.5099 25.2568 16.4337L27.1324 15.2538C27.251 15.181 27.4087 15.181 27.5263 15.2538L29.402 16.4337C29.5234 16.5101 29.5988 16.6529 29.5988 16.8057V19.162C29.5988 19.315 29.5234 19.4573 29.402 19.5344L27.5263 20.7131C27.4668 20.7509 27.399 20.7704 27.3293 20.7704ZM27.9089 19.147C27.0877 19.147 26.9159 18.7367 26.9159 18.3928C26.9159 18.3604 26.9403 18.3339 26.9703 18.3339H27.2128C27.2399 18.3339 27.2624 18.355 27.2666 18.3838C27.303 18.6526 27.4124 18.7882 27.9089 18.7882C28.3038 18.7882 28.4721 18.691 28.4721 18.4625C28.4721 18.3308 28.4243 18.2333 27.8104 18.1677C27.2971 18.1124 26.9798 17.9892 26.9798 17.5419C26.9798 17.1301 27.2988 16.8842 27.8333 16.8842C28.4343 16.8842 28.7315 17.1113 28.7691 17.5985C28.7705 17.615 28.7651 17.6312 28.7549 17.6438C28.7445 17.6553 28.7304 17.6625 28.7152 17.6625H28.4716C28.4463 17.6625 28.4241 17.6433 28.4189 17.6165C28.3603 17.3335 28.2185 17.2433 27.8331 17.2433C27.4018 17.2433 27.3517 17.4071 27.3517 17.5293C27.3517 17.6777 27.4108 17.7209 27.9933 17.8048C28.5697 17.8879 28.8436 18.0052 28.8436 18.4463C28.8438 18.8921 28.503 19.147 27.9089 19.147Z" fill="#ED1C24"/>
<path id="Vector_2" d="M23.4675 17.6043C23.5415 17.5572 23.5871 17.4713 23.5871 17.3779V16.7724C23.5871 16.6793 23.5417 16.5934 23.4675 16.5463L21.491 15.2972C21.4166 15.2501 21.3249 15.2499 21.2502 15.2967L19.2614 16.5466C19.1872 16.5934 19.1414 16.6796 19.1414 16.7729V19.2722C19.1414 19.3661 19.1877 19.453 19.2628 19.4996L21.2391 20.7253C21.3119 20.7708 21.4012 20.7711 21.4747 20.7269L22.67 20.0035C22.708 19.9804 22.7317 19.9372 22.7319 19.8903C22.7321 19.843 22.709 19.7993 22.6714 19.7759L20.6703 18.5257C20.6327 18.5023 20.6098 18.4591 20.6098 18.4125V17.629C20.6098 17.5822 20.6327 17.5392 20.6698 17.5161L21.293 17.1251C21.3299 17.1017 21.3757 17.1017 21.4128 17.1251L22.036 17.5161C22.0733 17.5395 22.0962 17.5824 22.0962 17.629V18.2453C22.0962 18.2924 22.1191 18.3356 22.1562 18.3588C22.1936 18.3822 22.2394 18.3822 22.2768 18.3585L23.4675 17.6043Z" fill="#ED1C24"/>
<path id="Vector_3" d="M21.3407 17.4831C21.3551 17.4744 21.3726 17.4744 21.3868 17.4831L21.7685 17.7231C21.7826 17.7321 21.7914 17.7488 21.7914 17.7666V18.2463C21.7914 18.2643 21.7826 18.2808 21.7685 18.2898L21.3868 18.5295C21.3726 18.5385 21.3549 18.5385 21.3407 18.5295L20.9593 18.2898C20.9449 18.2808 20.9362 18.2643 20.9362 18.2463V17.7666C20.9362 17.7488 20.9449 17.7321 20.9593 17.7231L21.3407 17.4831Z" fill="#ED1C24"/>
<path id="Vector_4" d="M16.1653 18.4835C16.1653 18.5067 16.1539 18.5283 16.1352 18.5401L15.4523 18.9687C15.4336 18.9805 15.4107 18.9805 15.3923 18.9687L14.7093 18.5401C14.6907 18.5283 14.6793 18.5067 14.6793 18.4835V17.6249C14.6793 17.6018 14.6909 17.5799 14.7093 17.5681L15.3923 17.139C15.4109 17.1269 15.4339 17.1269 15.4525 17.139L16.1357 17.5681C16.1541 17.5799 16.1655 17.6018 16.1655 17.6249V18.4835H16.1653ZM16.3498 12.1258C16.3127 12.1034 16.2673 12.1039 16.2305 12.1273C16.1938 12.151 16.1712 12.1937 16.1712 12.24V15.5622C16.1712 15.5946 16.1551 15.6249 16.1293 15.6414C16.1033 15.6576 16.0712 15.6576 16.0452 15.6414L15.5471 15.3288C15.4729 15.2823 15.3814 15.2823 15.3072 15.3288L13.3179 16.5785C13.2435 16.6253 13.1976 16.7117 13.1976 16.8051V19.3051C13.1976 19.3985 13.2435 19.4847 13.3177 19.5318L15.307 20.7822C15.3812 20.829 15.4729 20.829 15.5473 20.7822L17.5371 19.5318C17.6113 19.4847 17.6571 19.3985 17.6571 19.3051V13.0732C17.6571 12.9785 17.6098 12.891 17.534 12.8447L16.3498 12.1258Z" fill="#ED1C24"/>
<path id="Vector_5" d="M9.34898 15.2812C9.42318 15.2344 9.51487 15.2344 9.58907 15.2812L11.5784 16.5306C11.6526 16.5774 11.6984 16.6638 11.6984 16.7572V19.258C11.6984 19.3514 11.6526 19.4378 11.5784 19.4846L9.58931 20.7351C9.51511 20.7816 9.42342 20.7816 9.34898 20.7351L7.3604 19.4846C7.2862 19.4378 7.24036 19.3514 7.24036 19.258V16.7569C7.24036 16.6638 7.2862 16.5774 7.3604 16.5306L9.34898 15.2812Z" fill="#ED1C24"/>
<path id="Vector_6" d="M5.73162 16.7376C5.73162 16.6434 5.68625 16.557 5.61158 16.5105L3.623 15.2647C3.58897 15.2431 3.5514 15.232 3.51335 15.2305H3.49279C3.45498 15.232 3.41717 15.2431 3.38314 15.2647L1.39433 16.5105C1.32037 16.557 1.27405 16.6434 1.27405 16.7376L1.2783 20.0919C1.2783 20.1387 1.30075 20.1822 1.33833 20.2048C1.37519 20.229 1.4208 20.229 1.45766 20.2048L2.63923 19.4681C2.7139 19.4198 2.75951 19.3346 2.75951 19.2412V17.6742C2.75951 17.5805 2.80488 17.4944 2.87932 17.4476L3.38267 17.1322C3.42001 17.1083 3.46113 17.0969 3.50272 17.0969C3.54384 17.0969 3.5859 17.1083 3.62253 17.1322L4.1254 17.4476C4.19984 17.4944 4.24569 17.5805 4.24569 17.6742V19.2412C4.24569 19.3346 4.29177 19.4203 4.36597 19.4681L5.54754 20.2048C5.58464 20.229 5.63096 20.229 5.66758 20.2048C5.70421 20.1819 5.72713 20.1385 5.72713 20.0919L5.73162 16.7376Z" fill="#ED1C24"/>
</g>
</svg>
