<svg width="18" height="17" viewBox="0 0 18 17" fill="none" xmlns="http://www.w3.org/2000/svg">
<path id="Vector" fill-rule="evenodd" clip-rule="evenodd" d="M5.08962 15.2046C8.97697 15.7384 12.7952 16.2627 16.6894 16.7973C15.3627 14.5756 14.07 12.4107 12.7671 10.2282L5.08962 15.2046ZM17.7865 2.90689C17.4439 3.42452 17.1005 3.94172 16.7583 4.45964C15.583 6.23817 14.4079 8.0167 13.2337 9.79608C13.1683 9.89517 13.0835 9.97375 13.1757 10.1265C14.3102 12.011 15.4358 13.901 16.5643 15.7892C16.7423 16.0875 16.9223 16.3846 17.1526 16.6707C17.3808 12.0877 17.6088 7.50448 17.8368 2.92141L17.7865 2.90689ZM2.29873 8.78261C2.35181 8.83314 2.48428 8.86261 2.54599 8.83201C3.63424 8.29402 4.72942 7.76799 5.79389 7.18573C6.14107 6.99596 6.408 6.65571 6.70706 6.37982C7.69737 5.46628 8.68612 4.55089 9.67444 3.63536C9.73488 3.57913 9.80649 3.52474 9.84258 3.45385C10.1975 2.75599 10.5464 2.05457 10.9076 1.33294C10.4769 1.17007 10.0686 1.01077 9.65519 0.865847C9.59915 0.846201 9.51083 0.885208 9.45011 0.919232C8.49321 1.45693 7.51833 1.96602 6.59185 2.55241C6.12833 2.84582 5.75072 3.27817 5.34028 3.65472C4.67875 4.26204 4.01808 4.87078 3.36617 5.48863C3.19322 5.65263 3.03555 5.83998 2.90081 6.03729C2.45498 6.69031 2.02246 7.35272 1.57012 8.03392C1.8229 8.29687 2.05275 8.54828 2.29873 8.78261ZM6.27609 7.88985C5.73473 10.1903 5.19662 12.4778 4.64054 14.8404C7.248 13.1504 9.79531 11.4994 12.3258 9.85958C10.312 9.204 8.30483 8.55041 6.27609 7.88985ZM17.1219 2.9291C14.9188 3.29939 12.7684 3.6607 10.5902 4.02671C11.3321 5.84197 12.0591 7.62079 12.8069 9.45014C14.2535 7.2636 15.6715 5.12091 17.1219 2.9291ZM6.36696 7.41935C8.35082 8.06709 10.2952 8.70203 12.2961 9.35547C11.553 7.53466 10.8354 5.77748 10.103 3.98315C8.85539 5.13045 7.62646 6.2608 6.36696 7.41935ZM2.38068 10.1241C1.67712 11.8158 0.997478 13.4499 0.305523 15.1136C1.63537 15.074 2.92445 15.0357 4.25783 14.9961C3.63183 13.3715 3.01814 11.7788 2.38068 10.1241ZM4.30454 13.8392L4.35351 13.8283C4.82807 11.8437 5.30942 9.87267 5.79389 7.81041C4.71314 8.37545 3.68222 8.91429 2.62313 9.46808C3.16364 10.8812 3.73996 12.3718 4.30454 13.8392ZM16.3245 2.60722C15.6934 2.43909 15.0623 2.27039 14.4309 2.1034C13.5234 1.86338 12.6152 1.62635 11.7083 1.38419C11.5949 1.35386 11.513 1.33408 11.4463 1.47146C11.1257 2.13202 10.7952 2.78759 10.4696 3.44573C10.4595 3.46609 10.4616 3.49243 10.4539 3.54354C12.4192 3.24401 14.3714 2.94633 16.3232 2.64879L16.3245 2.60722ZM12.6632 1.10473L17.8069 2.53604C17.512 1.69055 17.2384 0.906562 16.957 0.100223L12.6707 1.05618L12.6632 1.10473ZM4.7406 15.5857C4.10356 15.5118 3.44954 15.5797 2.80344 15.5909C2.27269 15.5999 1.74194 15.6203 1.21119 15.6369C1.15656 15.6386 1.10207 15.6497 1.04758 15.709C5.43553 16.117 9.82333 16.525 14.2111 16.9333L14.2201 16.8743C12.8135 16.6811 11.4068 16.488 10.0003 16.2949C8.24751 16.0542 6.49773 15.7894 4.7406 15.5857ZM0.392283 13.5907C0.957707 12.271 1.52073 10.9505 2.08841 9.6318C2.14517 9.49954 2.14078 9.40971 2.02968 9.30322C1.79219 9.07587 1.57154 8.83087 1.31196 8.55924C0.961104 10.3018 0.618877 12.0011 0.276367 13.7004L0.314723 13.7184C0.340906 13.6762 0.372893 13.6362 0.392283 13.5907ZM11.5366 0.75637C12.4901 0.508945 13.4575 0.315475 14.4192 0.0996535C14.4815 0.0855597 14.5423 0.0649172 14.6036 0.0472643L14.5941 0C13.2395 0.18322 11.885 0.366583 10.4622 0.559199C10.8502 0.729606 11.1491 0.856878 11.5366 0.75637Z" fill="#ED1C24"/>
</svg>
