<svg width="18" height="26" viewBox="0 0 18 26" fill="none" xmlns="http://www.w3.org/2000/svg">
<path id="Vector" d="M0.259155 5.34283L1.82121 23.127L8.83023 25.1021L15.8588 23.1245L17.4226 5.34283H0.259155ZM13.6573 15.265L13.2024 19.5674L13.2041 19.9359L8.84087 21.173V21.1732L8.83739 21.1761L4.43928 19.9528L4.14174 16.5448H6.29849L6.45143 18.2675L8.84165 18.9151L8.84087 18.918V18.9118L11.2402 18.2249L11.4934 15.3656H6.47814L6.43517 14.9028L6.33721 13.793L6.28591 13.2039H11.6843L11.8806 11.0421H3.65835L3.61518 10.5333L3.51723 9.34822L3.46593 8.68377H14.2288L14.1771 9.33899L13.6573 15.265ZM13.6806 3.05802L12.2966 1.41232H13.6806V0.429688H10.5832V1.28713L12.2074 2.788H10.5832V3.77063H13.6806V3.05802ZM10.0024 3.05802L8.68465 1.41232H10.0024V0.429688H7.09859V1.28713L8.5956 2.788H7.09859V3.77063H10.0024V3.05802ZM6.51783 2.788H4.96913V1.41232H6.51783V0.429688H3.80761V3.77063H6.51783V2.788Z" fill="#ED1C24"/>
</svg>
