<svg width="23" height="25" viewBox="0 0 23 25" fill="none" xmlns="http://www.w3.org/2000/svg">
<path id="Vector" d="M8.47669 16.1635L8.5147 16.182L8.58245 16.2147C8.66891 16.2558 8.75615 16.2966 8.84419 16.3358L8.89953 16.3604C9.00056 16.4047 9.10218 16.4469 9.20499 16.4874L9.27943 16.5166C9.37436 16.5536 9.47086 16.5895 9.56756 16.6235L9.6038 16.6359C9.70995 16.673 9.81709 16.7074 9.92521 16.7411L10.003 16.7642C10.1129 16.7974 10.2214 16.837 10.3349 16.8581C17.5339 18.1707 19.6249 12.5318 19.6249 12.5318C17.8685 14.8199 14.7511 15.4236 11.7974 14.7516C11.6855 14.7264 11.5768 14.6913 11.4677 14.659L11.3855 14.6342C11.279 14.6015 11.173 14.5671 11.0681 14.531L11.0245 14.5153C10.9304 14.4822 10.8373 14.4471 10.7447 14.4115L10.6663 14.3807C10.5647 14.3408 10.4639 14.2988 10.3642 14.2551L10.3037 14.2283C10.2181 14.1895 10.1332 14.1503 10.0489 14.1097L9.97504 14.0743C9.90886 14.042 9.84328 14.0075 9.7779 13.9739L9.64634 13.9049C9.56658 13.8622 9.48819 13.8179 9.4102 13.7724L9.33044 13.7279C9.22665 13.6666 9.12404 13.6034 9.02262 13.5392L8.9397 13.4841C8.86605 13.4366 8.79278 13.3883 8.7207 13.3385L8.6502 13.2889C8.58048 13.2396 8.51155 13.1898 8.44321 13.1392L8.35143 13.0697C8.28881 13.0218 8.22637 12.9736 8.16473 12.9239L8.08142 12.857C8.00304 12.7924 7.92544 12.7276 7.84864 12.661L7.82323 12.6396C7.73992 12.5671 7.65858 12.4924 7.57823 12.4176L7.5093 12.3512C7.44963 12.2947 7.39114 12.2376 7.33343 12.1791L7.2645 12.1102C7.19124 12.0351 7.11935 11.9591 7.04885 11.8821L7.03821 11.8707C6.96357 11.7892 6.8907 11.7059 6.81941 11.6218L6.7621 11.5536C6.70892 11.4896 6.65614 11.4246 6.60474 11.359L6.54703 11.2873C6.485 11.207 6.42454 11.1268 6.36526 11.0453C4.7255 8.80842 4.13625 5.72329 5.44691 3.18961L4.28514 4.66315C2.79644 6.80254 2.98196 9.58615 4.11892 11.8597L4.20222 12.0214L4.25559 12.1238L4.28868 12.1827L4.34796 12.2888C4.38321 12.351 4.41926 12.4129 4.45628 12.4747L4.51832 12.5769C4.55928 12.6431 4.60123 12.7085 4.64436 12.7739L4.69793 12.857C4.75721 12.9452 4.81787 13.0334 4.8803 13.1201L4.88562 13.127L4.91634 13.1686C4.9705 13.2432 5.02624 13.3169 5.08256 13.3897L5.14519 13.4693C5.19541 13.5325 5.24681 13.5955 5.29881 13.6582L5.35749 13.7281C5.42741 13.8106 5.4987 13.8925 5.57157 13.9727L5.5759 13.9772L5.58418 13.9863C5.65508 14.0639 5.72795 14.1395 5.8016 14.2155L5.87132 14.2858C5.92843 14.3433 5.98634 14.3998 6.04502 14.4562L6.11612 14.5237C6.19431 14.5974 6.27328 14.6697 6.35403 14.7406L6.35797 14.7435L6.39933 14.779C6.47042 14.8404 6.5429 14.9017 6.61577 14.9617L6.70538 15.033C6.76485 15.0807 6.82512 15.1277 6.88578 15.174L6.98208 15.2473C7.04904 15.2965 7.1164 15.345 7.18434 15.3924L7.2582 15.4448L7.27848 15.4592C7.34308 15.5037 7.40906 15.5463 7.47503 15.589L7.56011 15.6457C7.66114 15.7097 7.76395 15.7729 7.86774 15.834L7.95282 15.882C8.02923 15.926 8.10584 15.9691 8.18364 16.0112L8.31126 16.0774L8.47669 16.1635ZM9.204 8.91693C9.3653 9.14814 9.54393 9.42308 9.758 9.60899C9.8356 9.69447 9.91674 9.77758 9.99946 9.8597L10.0633 9.92233C10.1438 10.0003 10.2255 10.0769 10.3098 10.1516L10.3201 10.1602L10.3224 10.1628C10.416 10.2447 10.5125 10.3235 10.6106 10.4011L10.6762 10.4523C10.7746 10.5277 10.8749 10.6018 10.9777 10.6725L10.9865 10.679L11.124 10.7696L11.1894 10.8129C11.2629 10.8598 11.3371 10.9059 11.4129 10.9496L11.4444 10.9679C11.5096 11.0055 11.5758 11.0425 11.642 11.0784L11.7121 11.1152L11.8503 11.1867L11.8712 11.1962C11.9661 11.2428 12.0619 11.2877 12.1595 11.3305L12.2231 11.3567C12.3011 11.3898 12.3801 11.4223 12.4593 11.4526L12.5605 11.4896C12.6326 11.5164 12.7047 11.5408 12.7775 11.565L12.8758 11.5965C12.9794 11.6286 13.0816 11.6692 13.1895 11.6871C18.7477 12.6082 20.031 8.32846 20.031 8.32846C18.8741 9.99441 16.6341 10.7891 14.2436 10.1687C14.1374 10.1407 14.0327 10.1106 13.9289 10.0777L13.8341 10.0472C13.7603 10.0234 13.6868 9.99796 13.614 9.97137L13.5147 9.93434C13.4349 9.90362 13.3558 9.87191 13.2776 9.83883L13.2138 9.81165C13.1157 9.76891 13.019 9.72401 12.9239 9.67674L12.7783 9.60269L12.6944 9.55956C12.6326 9.52608 12.5711 9.49102 12.5105 9.45577L12.4666 9.43076C12.3911 9.38684 12.3171 9.34154 12.2436 9.29506L12.1765 9.24996L12.0323 9.15464C11.9297 9.08394 11.83 9.01009 11.732 8.93505L11.6644 8.88168C10.6181 8.05589 9.78873 6.92662 9.39425 5.64629C8.98106 4.31889 9.07008 2.82842 9.78597 1.61899L8.90642 2.86091C7.82993 4.40988 7.88842 6.48389 8.72819 8.12226C8.8688 8.39661 9.02695 8.66327 9.204 8.91693ZM15.0625 7.00047L15.2005 7.04833L15.2614 7.06763C15.327 7.08811 15.3918 7.11214 15.4593 7.12474C18.5283 7.71774 19.361 5.54979 19.5825 5.23074C18.8533 6.28064 17.6279 6.53253 16.1242 6.1676C16.0055 6.13884 15.8749 6.09611 15.7603 6.05534C15.6135 6.00295 15.469 5.94348 15.3284 5.87612C15.0613 5.74771 14.8069 5.59233 14.5709 5.41389C13.2254 4.39274 12.3896 2.44556 13.2675 0.859375L12.7925 1.51402C12.158 2.44812 12.0955 3.60812 12.5359 4.63931C13.0003 5.73432 13.9519 6.593 15.0625 7.00047ZM12.1001 19.5657H11.2678C11.2217 19.5657 11.1758 19.6027 11.166 19.6478L10.8705 21.0146L10.5751 22.3814C10.5655 22.4265 10.5196 22.4635 10.4735 22.4635H9.88444C9.30169 22.4635 9.36904 22.0604 9.48839 21.5081L9.49193 21.4914L9.50493 21.4217L9.5073 21.4087L9.53388 21.2669L9.56244 21.115L9.59277 20.9604L9.72708 20.3042L9.8616 19.648C9.87085 19.6027 9.84052 19.5655 9.79444 19.5655H8.94029C8.89421 19.5655 8.84852 19.6025 8.83906 19.6478L8.65532 20.5191L8.47177 21.3906L8.47137 21.3917L8.45443 21.4729C8.24292 22.4385 8.29885 23.3596 9.44861 23.3886L9.48209 23.3891H11.2867C11.3328 23.3891 11.3787 23.3521 11.3883 23.307L11.7775 21.4776L12.1666 19.648C12.1763 19.6027 12.1463 19.5659 12.1001 19.5657ZM3.18718 19.556H2.27336C2.22707 19.556 2.18099 19.5931 2.17075 19.638L2.08409 20.0204L1.99744 20.4029C1.98739 20.448 2.01674 20.4848 2.06302 20.4848H2.98393C3.03021 20.4848 3.0761 20.4478 3.08595 20.4027L3.16965 20.0204L3.25335 19.6382C3.263 19.5931 3.23346 19.556 3.18718 19.556ZM2.92209 20.7464H2.00098C1.9549 20.7464 1.90862 20.7834 1.89838 20.8283L1.76898 21.4014L1.63979 21.9743L1.60375 22.1385L1.47948 22.7235L1.3554 23.3086C1.34575 23.3537 1.32586 23.4266 1.31109 23.4703C1.31109 23.4703 1.13896 23.9823 0.849651 23.9764L0.813413 23.9756L0.563098 23.9711H0.562901C0.516816 23.9705 0.470534 24.0066 0.459703 24.0513L0.364185 24.4528L0.268864 24.8542C0.258032 24.8991 0.28718 24.9361 0.333068 24.9369C0.497122 24.9389 0.864619 24.943 1.08697 24.943C1.80955 24.943 2.19064 24.5426 2.43465 23.3905L2.72042 22.0682L2.98846 20.8281C2.99811 20.7834 2.96817 20.7464 2.92209 20.7464ZM19.8823 20.4364L19.8441 20.2786L19.8065 20.1171L19.7874 20.0356C19.7125 19.7447 19.4929 19.5771 19.0159 19.5771L18.2735 19.5763L17.5897 19.5753H16.8202C16.7741 19.5753 16.7284 19.6124 16.7188 19.6575L16.6847 19.8182L16.6445 20.008L16.6333 20.0614L16.2869 21.6842L15.958 23.2247C15.9481 23.27 15.945 23.3255 15.9505 23.348C15.956 23.3706 16.0448 23.3891 16.0909 23.3891H16.785C16.8312 23.3891 16.8897 23.3809 16.9149 23.3706C16.9401 23.3604 16.9774 23.2696 16.9866 23.2245L17.1099 22.6142L17.2334 22.0036L17.2336 22.0027L17.2501 21.9213L17.3998 21.2202L17.532 20.601C17.5418 20.5559 17.5873 20.5191 17.6334 20.5189L19.8173 20.5179C19.8636 20.5183 19.8927 20.4815 19.8823 20.4364ZM22.6937 19.0105L22.5255 19.0111H21.8265C21.7802 19.0111 21.721 19.0424 21.6952 19.0806L20.1493 21.3451C20.1233 21.3833 20.0936 21.3778 20.0834 21.3329L19.9695 20.834C19.9593 20.7889 19.913 20.7521 19.8667 20.7521H18.8731C18.8269 20.7521 18.7995 20.7883 18.8121 20.8326L19.2574 22.3926C19.27 22.4371 19.271 22.51 19.2596 22.5549L19.0656 23.3098C19.0539 23.3547 19.0823 23.3911 19.1286 23.3911H20.1107C20.1568 23.3911 20.2041 23.3545 20.2155 23.3098L20.4097 22.5549C20.4211 22.5098 20.4532 22.4432 20.4812 22.4062L22.9906 19.0757C23.0186 19.0387 23.0035 19.0085 22.9574 19.0089L22.6937 19.0105ZM14.799 20.964V20.9632C14.7933 21.0132 14.747 21.05 14.7007 21.05H13.4409C13.3971 21.05 13.3751 21.0205 13.3816 20.9839L13.3828 20.9809L13.382 20.9813L13.3826 20.9772L13.3883 20.9557C13.5086 20.6359 13.7536 20.4259 14.2142 20.4259C14.733 20.4257 14.8342 20.679 14.799 20.964ZM14.4293 19.5097C12.8122 19.5097 12.429 20.4913 12.2139 21.4821C11.999 22.4921 12.0173 23.436 13.691 23.436H13.8938L13.9442 23.4358H13.9561L14.1569 23.4352H14.1605C14.6024 23.4335 15.0457 23.4301 15.2252 23.4287C15.271 23.4279 15.316 23.3911 15.3254 23.346L15.3932 23.0149L15.4063 22.9506L15.4871 22.5555C15.4964 22.5104 15.4662 22.4732 15.4199 22.4732H13.9155C13.317 22.4732 13.1393 22.3142 13.2049 21.8467H15.6098L15.6096 21.8469L15.6112 21.8467C15.6494 21.8461 15.6848 21.8197 15.6988 21.7846L15.7045 21.7638L15.7043 21.764C16.0614 20.4171 15.959 19.5099 14.4293 19.5097ZM6.78593 20.9589L6.76308 21.0394V21.0396L6.5815 21.6832L6.39992 22.3266C6.38751 22.3713 6.33926 22.4076 6.29298 22.4076H5.33189C4.60281 22.4076 4.42516 21.8372 4.60281 20.9963C4.78025 20.136 5.12825 19.6013 5.84591 19.5472C6.82669 19.4731 7.02285 20.1628 6.78593 20.9589ZM7.44529 22.3581C7.44529 22.3581 7.89846 21.2576 8.00127 20.6223C8.14169 19.7717 7.7157 18.5376 6.07043 18.5376C4.43462 18.5376 3.72404 19.7156 3.45305 20.9963C3.18205 22.2863 3.53714 23.4173 5.1637 23.408L6.44699 23.4033L7.64618 23.399C7.69226 23.3986 7.73953 23.362 7.75135 23.3175L7.9603 22.5206C7.97192 22.4757 7.94376 22.4391 7.89748 22.4387L7.69719 22.4375L7.49689 22.4363C7.4577 22.4361 7.43525 22.4105 7.43998 22.3769L7.44529 22.3581ZM15.5436 21.6214C15.5436 21.6519 15.519 21.6767 15.4885 21.6767C15.4581 21.6767 15.4333 21.6519 15.4333 21.6214C15.4333 21.591 15.4579 21.5664 15.4885 21.5664C15.519 21.5664 15.5436 21.591 15.5436 21.6214Z" fill="#ED1C24"/>
</svg>
