<svg width="30" height="45" viewBox="0 0 30 45" fill="none" xmlns="http://www.w3.org/2000/svg">
<path id="Vector" d="M27 0H3C2.20463 0.00104958 1.4421 0.366084 0.879684 1.01502C0.317272 1.66396 0.000909634 2.5438 0 3.46154V41.5385C0.000909634 42.4562 0.317272 43.336 0.879684 43.985C1.4421 44.6339 2.20463 44.999 3 45H27C27.7954 44.999 28.5579 44.6339 29.1203 43.985C29.6827 43.336 29.9991 42.4562 30 41.5385V3.46154C29.9991 2.5438 29.6827 1.66396 29.1203 1.01502C28.5579 0.366084 27.7954 0.00104958 27 0ZM15 36.3462C14.555 36.3462 14.12 36.1939 13.75 35.9086C13.38 35.6234 13.0916 35.2179 12.9213 34.7435C12.751 34.2691 12.7064 33.7471 12.7932 33.2435C12.88 32.7399 13.0943 32.2773 13.409 31.9142C13.7237 31.5512 14.1246 31.3039 14.561 31.2037C14.9975 31.1036 15.4499 31.155 15.861 31.3515C16.2722 31.548 16.6236 31.8807 16.8708 32.3077C17.118 32.7346 17.25 33.2365 17.25 33.75C17.2493 34.4383 17.0121 35.0982 16.5903 35.5849C16.1684 36.0716 15.5965 36.3454 15 36.3462ZM21 19.0385H9C8.60218 19.0385 8.22064 18.8561 7.93934 18.5315C7.65804 18.2069 7.5 17.7667 7.5 17.3077C7.5 16.8487 7.65804 16.4084 7.93934 16.0839C8.22064 15.7593 8.60218 15.5769 9 15.5769H21C21.3978 15.5769 21.7794 15.7593 22.0607 16.0839C22.342 16.4084 22.5 16.8487 22.5 17.3077C22.5 17.7667 22.342 18.2069 22.0607 18.5315C21.7794 18.8561 21.3978 19.0385 21 19.0385ZM21 12.1154H9C8.60218 12.1154 8.22064 11.933 7.93934 11.6085C7.65804 11.2839 7.5 10.8436 7.5 10.3846C7.5 9.92559 7.65804 9.48536 7.93934 9.16078C8.22064 8.83619 8.60218 8.65385 9 8.65385H21C21.3978 8.65385 21.7794 8.83619 22.0607 9.16078C22.342 9.48536 22.5 9.92559 22.5 10.3846C22.5 10.8436 22.342 11.2839 22.0607 11.6085C21.7794 11.933 21.3978 12.1154 21 12.1154Z" fill="#101942"/>
</svg>
