<svg width="41" height="44" viewBox="0 0 41 44" fill="none" xmlns="http://www.w3.org/2000/svg">
<g id="Web development">
<path id="Vector" d="M29.6112 43.05H11.389C11.1876 43.05 10.9945 42.9744 10.8521 42.8398C10.7097 42.7052 10.6297 42.5227 10.6297 42.3325C10.6297 42.1422 10.7097 41.9597 10.8521 41.8251C10.9945 41.6905 11.1876 41.615 11.389 41.615H29.6112C29.8125 41.615 30.0057 41.6905 30.1481 41.8251C30.2904 41.9597 30.3704 42.1422 30.3704 42.3325C30.3704 42.5227 30.2904 42.7052 30.1481 42.8398C30.0057 42.9744 29.8125 43.05 29.6112 43.05ZM36.4445 0H4.55565C4.35428 0 4.16116 0.0755934 4.01877 0.210151C3.87638 0.344708 3.79639 0.527207 3.79639 0.717499V5.73999H37.2038V0.717499C37.2038 0.527207 37.1238 0.344708 36.9814 0.210151C36.839 0.0755934 36.6459 0 36.4445 0ZM19.7408 3.5875H6.83342C6.63205 3.5875 6.43893 3.5119 6.29654 3.37735C6.15416 3.24279 6.07416 3.06029 6.07416 2.87C6.07416 2.6797 6.15416 2.49721 6.29654 2.36265C6.43893 2.22809 6.63205 2.1525 6.83342 2.1525H19.7408C19.9422 2.1525 20.1353 2.22809 20.2777 2.36265C20.4201 2.49721 20.5001 2.6797 20.5001 2.87C20.5001 3.06029 20.4201 3.24279 20.2777 3.37735C20.1353 3.5119 19.9422 3.5875 19.7408 3.5875ZM24.2964 4.305C23.996 4.305 23.7024 4.22083 23.4527 4.06315C23.203 3.90547 23.0084 3.68136 22.8934 3.41915C22.7785 3.15694 22.7484 2.8684 22.807 2.59004C22.8656 2.31168 23.0102 2.05599 23.2226 1.8553C23.435 1.65461 23.7056 1.51794 24.0001 1.46257C24.2947 1.4072 24.6 1.43562 24.8775 1.54423C25.1549 1.65284 25.3921 1.83677 25.559 2.07275C25.7258 2.30874 25.8149 2.58618 25.8149 2.87C25.8149 3.25058 25.6549 3.61558 25.3701 3.88469C25.0853 4.15381 24.6991 4.305 24.2964 4.305ZM28.8519 4.305C28.5516 4.305 28.258 4.22083 28.0083 4.06315C27.7586 3.90547 27.5639 3.68136 27.449 3.41915C27.3341 3.15694 27.304 2.8684 27.3626 2.59004C27.4212 2.31168 27.5658 2.05599 27.7782 1.8553C27.9905 1.65461 28.2611 1.51794 28.5557 1.46257C28.8502 1.4072 29.1556 1.43562 29.433 1.54423C29.7105 1.65284 29.9477 1.83677 30.1145 2.07275C30.2814 2.30874 30.3704 2.58618 30.3704 2.87C30.3704 3.25058 30.2104 3.61558 29.9257 3.88469C29.6409 4.15381 29.2547 4.305 28.8519 4.305ZM33.4075 4.305C33.1071 4.305 32.8135 4.22083 32.5638 4.06315C32.3141 3.90547 32.1195 3.68136 32.0045 3.41915C31.8896 3.15694 31.8595 2.8684 31.9181 2.59004C31.9767 2.31168 32.1213 2.05599 32.3337 1.8553C32.5461 1.65461 32.8167 1.51794 33.1112 1.46257C33.4058 1.4072 33.7111 1.43562 33.9886 1.54423C34.266 1.65284 34.5032 1.83677 34.6701 2.07275C34.8369 2.30874 34.926 2.58618 34.926 2.87C34.926 3.25058 34.766 3.61558 34.4812 3.88469C34.1964 4.15381 33.8102 4.305 33.4075 4.305ZM3.79639 7.17499V21.525C3.79639 21.7153 3.87638 21.8978 4.01877 22.0323C4.16116 22.1669 4.35428 22.2425 4.55565 22.2425H36.4445C36.6459 22.2425 36.839 22.1669 36.9814 22.0323C37.1238 21.8978 37.2038 21.7153 37.2038 21.525V7.17499H3.79639ZM8.22286 16.8254C8.33275 16.9835 8.37207 17.1763 8.33225 17.3618C8.29243 17.5472 8.17671 17.7103 8.01027 17.8155C7.888 17.8964 7.74195 17.9391 7.59268 17.9375C7.46762 17.9369 7.34466 17.9071 7.23473 17.8507C7.12479 17.7944 7.03127 17.7133 6.96249 17.6146L5.44398 15.4621C5.36234 15.345 5.31883 15.2078 5.31883 15.0675C5.31883 14.9272 5.36234 14.79 5.44398 14.6729L6.96249 12.5204C7.08117 12.3811 7.25056 12.2888 7.43751 12.2614C7.62446 12.234 7.81549 12.2736 7.97319 12.3723C8.13088 12.4711 8.24389 12.6219 8.29007 12.7953C8.33625 12.9687 8.31229 13.1521 8.22286 13.3096L6.98527 15.0675L8.22286 16.8254ZM12.1482 12.4701L10.6297 18.0236C10.5867 18.1814 10.488 18.3208 10.35 18.4186C10.212 18.5164 10.0429 18.5669 9.87045 18.5617C9.8074 18.5687 9.74369 18.5687 9.68064 18.5617C9.57929 18.5409 9.48353 18.5007 9.39925 18.4436C9.31497 18.3865 9.24396 18.3137 9.19061 18.2297C9.13725 18.1456 9.10268 18.0522 9.08902 17.955C9.07537 17.8579 9.08291 17.7591 9.1112 17.6648L10.6297 12.1114C10.6801 11.9268 10.8059 11.7687 10.9796 11.6718C11.1534 11.5749 11.3607 11.5472 11.556 11.5948C11.7513 11.6424 11.9187 11.7613 12.0212 11.9255C12.1237 12.0896 12.153 12.2856 12.1027 12.4701H12.1482ZM15.8382 15.4621L14.3197 17.6146C14.2488 17.7164 14.1517 17.7994 14.0375 17.8559C13.9232 17.9124 13.7956 17.9405 13.6667 17.9375C13.5175 17.9391 13.3714 17.8964 13.2492 17.8155C13.0827 17.7103 12.967 17.5472 12.9272 17.3618C12.8874 17.1763 12.9267 16.9835 13.0366 16.8254L14.2742 15.0675L13.0366 13.3096C12.9703 13.2319 12.9219 13.1419 12.8945 13.0455C12.8672 12.9491 12.8614 12.8483 12.8776 12.7496C12.8937 12.651 12.9315 12.5566 12.9885 12.4725C13.0455 12.3885 13.1204 12.3166 13.2085 12.2614C13.2965 12.2063 13.3958 12.1691 13.4999 12.1523C13.6041 12.1355 13.7108 12.1394 13.8132 12.1637C13.9157 12.1881 14.0116 12.2324 14.0949 12.2938C14.1782 12.3552 14.247 12.4324 14.2969 12.5204L15.8154 14.6729C15.8971 14.79 15.9406 14.9272 15.9406 15.0675C15.9406 15.2078 15.8971 15.345 15.8154 15.4621H15.8382ZM35.6852 18.655C35.6852 19.2259 35.4453 19.7734 35.0181 20.177C34.5909 20.5807 34.0116 20.8075 33.4075 20.8075H20.5001C19.896 20.8075 19.3166 20.5807 18.8894 20.177C18.4623 19.7734 18.2223 19.2259 18.2223 18.655V11.48C18.2223 10.9091 18.4623 10.3616 18.8894 9.95794C19.3166 9.55427 19.896 9.32749 20.5001 9.32749H33.4075C34.0116 9.32749 34.5909 9.55427 35.0181 9.95794C35.4453 10.3616 35.6852 10.9091 35.6852 11.48V18.655Z" fill="#101942"/>
<path id="Vector_2" d="M41 6.4593V25.8318H2.18571e-05V6.4593C-0.00249385 5.76278 0.212207 5.081 0.617307 4.49911C1.02241 3.91723 1.59995 3.46103 2.2778 3.1875V21.5268C2.2778 22.0977 2.51778 22.6452 2.94494 23.0488C3.37211 23.4525 3.95147 23.6793 4.55557 23.6793H36.4444C37.0485 23.6793 37.6279 23.4525 38.0551 23.0488C38.4822 22.6452 38.7222 22.0977 38.7222 21.5268V3.1875C39.4001 3.46103 39.9776 3.91723 40.3827 4.49911C40.7878 5.081 41.0025 5.76278 41 6.4593ZM27.2498 41.6168H13.7502L16.3544 34.4418H24.6456L27.2498 41.6168Z" fill="#101942"/>
<path id="Vector_3" d="M0 27.2664V29.4189C0 30.3704 0.399965 31.2829 1.11191 31.9556C1.82385 32.6284 2.78945 33.0064 3.79629 33.0064H37.2037C38.2105 33.0064 39.1761 32.6284 39.8881 31.9556C40.6 31.2829 41 30.3704 41 29.4189V27.2664H0ZM21.2592 30.8539H19.7407C19.5394 30.8539 19.3462 30.7783 19.2038 30.6437C19.0615 30.5092 18.9815 30.3267 18.9815 30.1364C18.9815 29.9461 19.0615 29.7636 19.2038 29.6291C19.3462 29.4945 19.5394 29.4189 19.7407 29.4189H21.2592C21.4606 29.4189 21.6537 29.4945 21.7961 29.6291C21.9385 29.7636 22.0185 29.9461 22.0185 30.1364C22.0185 30.3267 21.9385 30.5092 21.7961 30.6437C21.6537 30.7783 21.4606 30.8539 21.2592 30.8539ZM25.1542 19.3739H20.8113L22.7778 17.5371C22.8567 17.4601 22.953 17.4008 23.0594 17.3635C23.1658 17.3263 23.2797 17.312 23.3928 17.3219C23.5047 17.3335 23.6125 17.3685 23.7084 17.4243C23.8042 17.4801 23.8857 17.5554 23.947 17.6447L25.1542 19.3739ZM33.2327 19.3739H26.9765L26.0046 17.9891L28.2824 15.3774C28.3529 15.2974 28.4411 15.2328 28.5408 15.1882C28.6404 15.1436 28.7492 15.12 28.8594 15.1191C28.9684 15.1109 29.0779 15.1289 29.1775 15.1716C29.2771 15.2143 29.3636 15.2802 29.4289 15.3631L33.2327 19.3739Z" fill="#101942"/>
<path id="Vector_4" d="M33.4075 10.7617H20.5001C20.2987 10.7617 20.1056 10.8373 19.9632 10.9719C19.8208 11.1064 19.7408 11.2889 19.7408 11.4792V18.36L21.6845 16.5017C21.9157 16.2854 22.1931 16.1184 22.4983 16.0119C22.8035 15.9054 23.1292 15.8619 23.4536 15.8843C23.7781 15.9067 24.0937 15.9946 24.3792 16.1419C24.6647 16.2893 24.9135 16.4927 25.1088 16.7385L27.136 14.4425C27.3475 14.2067 27.6102 14.0168 27.9063 13.8856C28.2024 13.7543 28.5249 13.6849 28.8519 13.6819C29.1729 13.6815 29.4904 13.7453 29.7835 13.8689C30.0766 13.9926 30.3387 14.1734 30.5527 14.3994L34.1668 18.2022V11.4792C34.1668 11.2889 34.0868 11.1064 33.9444 10.9719C33.802 10.8373 33.6089 10.7617 33.4075 10.7617ZM23.5371 15.0667C23.2368 15.0667 22.9432 14.9826 22.6935 14.8249C22.4438 14.6672 22.2491 14.4431 22.1342 14.1809C22.0193 13.9187 21.9892 13.6301 22.0478 13.3518C22.1064 13.0734 22.251 12.8177 22.4634 12.617C22.6758 12.4163 22.9463 12.2797 23.2409 12.2243C23.5355 12.1689 23.8408 12.1973 24.1182 12.3059C24.3957 12.4146 24.6329 12.5985 24.7997 12.8345C24.9666 13.0705 25.0557 13.3479 25.0557 13.6317C25.0557 14.0123 24.8957 14.3773 24.6109 14.6464C24.3261 14.9155 23.9399 15.0667 23.5371 15.0667Z" fill="#101942"/>
</g>
</svg>
