<svg width="49" height="18" viewBox="0 0 49 18" fill="none" xmlns="http://www.w3.org/2000/svg">
<g id="zoho-1 1" clip-path="url(#clip0_2002_2555)">
<path id="Vector" d="M48.5059 3.65625V15.4347L46.9146 17.0258V5.49966L48.5059 3.65625Z" fill="#760D16"/>
<path id="Vector_2" d="M38.0767 3.66595L36.4285 5.49966L36.5137 5.61609L46.8481 5.57728L46.9429 5.49966L48.5058 3.65625L38.0767 3.66595Z" fill="#EF463E"/>
<path id="Vector_3" d="M36.4285 5.5H46.9429V17.0359H36.4285V5.5Z" fill="#ED1C24"/>
<path id="Vector_4" d="M45.3419 9.65247C45.1336 9.11885 44.821 8.63374 44.4136 8.21655C44.0253 7.80906 43.5895 7.49859 43.097 7.29484C42.6139 7.0911 42.0929 6.98438 41.5246 6.98438C40.9562 6.98438 40.4258 7.0911 39.9427 7.29484C39.4501 7.49859 39.0144 7.80906 38.626 8.21655C38.2187 8.63374 37.9156 9.11885 37.7072 9.65247C37.4988 10.1861 37.4041 10.7682 37.4041 11.4086C37.4041 12.0295 37.5083 12.6116 37.7166 13.155C37.925 13.6983 38.2282 14.1834 38.6355 14.6103C39.0144 15.0081 39.4501 15.3088 39.9332 15.5126C40.4163 15.7163 40.9562 15.8231 41.534 15.8231C42.0929 15.8231 42.6139 15.7163 43.097 15.5126C43.5801 15.3088 44.0253 15.0081 44.4136 14.6103C44.821 14.1834 45.1336 13.6983 45.3419 13.1647C45.5503 12.631 45.6545 12.0392 45.6545 11.4183C45.6545 10.7682 45.5503 10.1861 45.3419 9.65247ZM43.1728 13.4557C42.7654 13.9505 42.2255 14.2028 41.5246 14.2028C40.8236 14.2028 40.2742 13.9505 39.8669 13.4557C39.4596 12.9609 39.2606 12.2721 39.2606 11.3989C39.2606 10.5063 39.469 9.81741 39.8669 9.3129C40.2742 8.80838 40.8141 8.56583 41.5246 8.56583C42.2255 8.56583 42.7654 8.81808 43.1728 9.3129C43.5706 9.81741 43.779 10.5063 43.779 11.3989C43.779 12.2721 43.5801 12.9609 43.1728 13.4557Z" fill="white"/>
<g id="Group">
<path id="Vector_5" d="M35.3958 2.69531V2.75353L36.7409 13.3386L35.9547 15.5701L35.8505 15.4925L34.4675 5.344L34.4959 5.20817L35.3579 2.75353L35.3958 2.69531Z" fill="#760D16"/>
<path id="Vector_6" d="M25.0424 4.17004L35.3958 2.69531L34.5243 5.23728L34.4012 5.37311L24.7203 6.82844L24.7677 5.01413L25.0424 4.17004Z" fill="#EF463E"/>
<path id="Vector_7" d="M34.5244 5.23828L35.9547 15.5711L25.7529 17.0361L24.3794 7.05259L24.9762 6.57718L34.5244 5.23828Z" fill="#ED1C24"/>
<path id="Vector_8" d="M32.7909 7.21467C32.7435 6.8945 32.6393 6.65195 32.4688 6.48701C32.3267 6.36088 32.1562 6.29297 31.9573 6.29297C31.9099 6.29297 31.8531 6.29297 31.7963 6.30267C31.531 6.34148 31.3321 6.46761 31.209 6.67135C31.1142 6.81689 31.0763 7.00123 31.0763 7.21467C31.0763 7.29229 31.0858 7.37961 31.0953 7.46693L31.4647 10.1544L28.5283 10.6007L28.1588 7.91323C28.1115 7.60276 28.0073 7.36021 27.8368 7.19527C27.6947 7.05944 27.5242 6.99152 27.3347 6.99152C27.2874 6.99152 27.24 6.99152 27.1927 7.00123C26.918 7.04004 26.7096 7.16616 26.5769 7.36991C26.4822 7.51544 26.4443 7.69978 26.4443 7.91323C26.4443 7.99085 26.4538 8.07817 26.4633 8.17519L27.4674 15.1705C27.5147 15.4906 27.6189 15.7332 27.8084 15.8981C27.9505 16.0242 28.121 16.0825 28.3293 16.0825C28.3862 16.0825 28.443 16.0825 28.4998 16.0728C28.7556 16.0339 28.9451 15.9078 29.0682 15.7041C29.1534 15.5585 29.1913 15.3839 29.1913 15.1802C29.1913 15.1025 29.1819 15.0152 29.1724 14.9279L28.7651 12.1628L31.7015 11.7165L32.1088 14.4816C32.1562 14.8018 32.2604 15.0443 32.4404 15.1996C32.5825 15.3257 32.753 15.3936 32.9519 15.3936C32.9993 15.3936 33.0561 15.3936 33.1129 15.3839C33.3781 15.3451 33.5771 15.219 33.7002 15.0152C33.7855 14.8697 33.8328 14.695 33.8328 14.4816C33.8328 14.404 33.8234 14.3167 33.8139 14.2293L32.7909 7.21467Z" fill="white"/>
</g>
<g id="Group_2">
<path id="Vector_9" d="M15.3524 0L11.6676 8.9648L12.1696 12.9039L12.1981 12.8942L16.3375 3.35695L16.3186 3.1532L15.4282 0.126128L15.3524 0Z" fill="#EF463E"/>
<path id="Vector_10" d="M15.3522 0L16.3089 3.28904L16.3278 3.35695L25.4403 7.53858L25.4687 7.51918L24.692 4.37568L15.3522 0Z" fill="#760D16"/>
<path id="Vector_11" d="M16.3089 3.28906L25.4687 7.51921L21.3293 17.1341L12.1694 12.9039L16.3089 3.28906Z" fill="#ED1C24"/>
<path id="Vector_12" d="M22.6933 8.29713C22.4944 7.75381 22.2197 7.2881 21.8597 6.90002C21.4998 6.51193 21.064 6.20146 20.5525 5.97831C20.041 5.75516 19.5295 5.64844 19.0085 5.64844H18.9801C18.4496 5.64844 17.9287 5.77457 17.4171 6.00742C16.8772 6.24997 16.4131 6.57985 16.0152 7.01644C15.6174 7.44334 15.2953 7.96726 15.049 8.56879C14.8028 9.16062 14.6701 9.76216 14.6417 10.354V10.5577C14.6417 11.0817 14.727 11.5959 14.907 12.1004C15.0964 12.634 15.3711 13.09 15.7311 13.4781C16.091 13.8662 16.5362 14.1766 17.0667 14.3998C17.5687 14.6229 18.0802 14.7297 18.6012 14.7297H18.6107C19.1317 14.7297 19.6526 14.6132 20.1641 14.3901C20.7041 14.1475 21.1777 13.808 21.5755 13.3714C21.9734 12.9445 22.3049 12.4303 22.5512 11.8287C22.7975 11.2272 22.9301 10.6354 22.9585 10.0435V9.86888C22.968 9.33526 22.8827 8.81134 22.6933 8.29713ZM20.8651 11.0914C20.5241 11.9257 20.0599 12.4982 19.5011 12.8086C19.198 12.9736 18.8854 13.0609 18.5728 13.0609C18.2981 13.0609 18.0044 12.993 17.7108 12.8669C17.0667 12.5855 16.6688 12.1392 16.4983 11.4988C16.4415 11.2854 16.4131 11.0622 16.4131 10.8294C16.4131 10.3637 16.5267 9.84948 16.7541 9.29645C17.1046 8.44266 17.5687 7.86053 18.1276 7.54036C18.4307 7.36572 18.7433 7.2881 19.0559 7.2881C19.34 7.2881 19.6242 7.35602 19.9273 7.48215C20.562 7.76351 20.9598 8.20981 21.1303 8.85015C21.1872 9.0539 21.2156 9.27705 21.2156 9.5099C21.2156 9.99501 21.1019 10.5189 20.8651 11.0914Z" fill="white"/>
</g>
<g id="Group_3">
<path id="Vector_13" d="M10.9382 1.52344L12.4348 11.7883L11.7528 15.3975L11.6581 15.2714L10.1993 5.35579V5.16175L10.8435 1.69808L10.9382 1.52344Z" fill="#760D16"/>
<path id="Vector_14" d="M0.00695801 6.83052L0.71739 3.20191L10.9381 1.52344L10.2466 5.21996V5.46252L0.130099 6.92755L0.00695801 6.83052Z" fill="#EF463E"/>
<path id="Vector_15" d="M10.2468 5.21875L11.7529 15.3963L1.63634 17.0166L0.00708008 6.82931L10.2468 5.21875Z" fill="#ED1C24"/>
<path id="Vector_16" d="M9.1575 13.7765C9.08172 13.6795 8.96805 13.6116 8.83544 13.5631C8.70282 13.5145 8.54179 13.4951 8.34287 13.4951C8.1629 13.4951 7.9545 13.5145 7.72716 13.5533L5.05594 14.0191C5.08436 13.8056 5.18856 13.5339 5.36853 13.1944C5.56745 12.816 5.87057 12.36 6.25894 11.8361C6.39155 11.6517 6.49575 11.5159 6.57153 11.4189C6.61889 11.351 6.69467 11.2636 6.78939 11.1375C7.4051 10.3128 7.77453 9.64338 7.92608 9.11946C8.01134 8.81869 8.0587 8.51792 8.07764 8.21716C8.08712 8.12984 8.08712 8.05222 8.08712 7.9746C8.08712 7.76115 8.06817 7.54771 8.03028 7.33426C8.00186 7.14022 7.9545 6.98498 7.88819 6.85885C7.82189 6.73272 7.74611 6.6357 7.65138 6.57749C7.54719 6.50958 7.38616 6.48047 7.18724 6.48047C7.02621 6.48047 6.82728 6.49987 6.59047 6.53868L3.50246 7.082C3.13304 7.14992 2.84887 7.25664 2.67836 7.43128C2.53628 7.56711 2.46997 7.74175 2.46997 7.93579C2.46997 7.9843 2.46997 8.04252 2.47944 8.10073C2.52681 8.37239 2.65942 8.56643 2.87728 8.66346C3.0099 8.72167 3.16146 8.75078 3.35091 8.75078C3.47405 8.75078 3.61613 8.74107 3.76769 8.71197L6.34419 8.24626C6.34419 8.29477 6.35366 8.34328 6.35366 8.38209C6.35366 8.54703 6.32525 8.71197 6.26841 8.8672C6.19263 9.09035 6.00318 9.40082 5.69059 9.79861C5.60534 9.90533 5.47273 10.08 5.29275 10.3031C4.59179 11.1666 4.09923 11.904 3.79611 12.5152C3.57824 12.9421 3.43616 13.3496 3.35091 13.7668C3.30354 14.0094 3.27513 14.2325 3.27513 14.4557C3.27513 14.6109 3.2846 14.7661 3.31302 14.9117C3.35091 15.1251 3.39827 15.2997 3.46457 15.4356C3.53088 15.5714 3.62561 15.6781 3.7298 15.7363C3.834 15.7945 3.97609 15.814 4.18448 15.814C4.44023 15.814 4.79071 15.7751 5.23592 15.6975L8.03975 15.2027C8.53232 15.1154 8.8828 14.9893 9.08172 14.8243C9.24275 14.6885 9.328 14.5042 9.328 14.2907C9.328 14.2325 9.31853 14.1743 9.30906 14.1161C9.29011 13.9899 9.24275 13.8735 9.1575 13.7765Z" fill="white"/>
</g>
</g>
<defs>
<clipPath id="clip0_2002_2555">
<rect width="48.5133" height="17.1728" fill="white"/>
</clipPath>
</defs>
</svg>
